<?xml version="1.0" encoding="UTF-8" standalone="no"?>
<svg
   width="135.97136mm"
   height="125.33284mm"
   viewBox="0 0 135.97135 125.33284"
   version="1.1"
   id="svg887"
   inkscape:version="1.3.2 (091e20e, 2023-11-25, custom)"
   sodipodi:docname="A Liga do Beat.svg"
   xml:space="preserve"
   xmlns:inkscape="http://www.inkscape.org/namespaces/inkscape"
   xmlns:sodipodi="http://sodipodi.sourceforge.net/DTD/sodipodi-0.dtd"
   xmlns="http://www.w3.org/2000/svg"
   xmlns:svg="http://www.w3.org/2000/svg"
   xmlns:rdf="http://www.w3.org/1999/02/22-rdf-syntax-ns#"
   xmlns:cc="http://creativecommons.org/ns#"
   xmlns:dc="http://purl.org/dc/elements/1.1/">
  <defs
   id="defs881">
    <rect
   x="6.8146968"
   y="54.982498"
   width="36.947807"
   height="17.279631"
   id="rect871" />
  </defs>
  <sodipodi:namedview
   id="base"
   pagecolor="#ffffff"
   bordercolor="#666666"
   borderopacity="1.0"
   inkscape:pageopacity="0.0"
   inkscape:pageshadow="2"
   inkscape:zoom="1.0744707"
   inkscape:cx="432.77122"
   inkscape:cy="248.0291"
   inkscape:document-units="mm"
   inkscape:current-layer="g633"
   showgrid="false"
   fit-margin-top="0"
   fit-margin-left="0"
   fit-margin-right="0"
   fit-margin-bottom="0"
   inkscape:window-width="2560"
   inkscape:window-height="1009"
   inkscape:window-x="1912"
   inkscape:window-y="-8"
   inkscape:window-maximized="1"
   inkscape:document-rotation="0"
   showguides="true"
   inkscape:guide-bbox="true"
   inkscape:showpageshadow="2"
   inkscape:pagecheckerboard="false"
   inkscape:deskcolor="#d1d1d1"
   inkscape:clip-to-page="false" />
  <metadata
   id="metadata884">
    <rdf:RDF>
      <cc:Work
   rdf:about="">
        <dc:format>image/svg+xml</dc:format>
        <dc:type
   rdf:resource="http://purl.org/dc/dcmitype/StillImage" />
      </cc:Work>
    </rdf:RDF>
  </metadata>
  <g
   inkscape:label="Camada 1"
   inkscape:groupmode="layer"
   id="layer1"
   transform="translate(-16.795977,17.846193)">
    <g
   transform="matrix(0.24283515,0,0,0.24283515,-513.84764,-51.94229)"
   id="g633"
   style="fill:#000000">
      <path
   id="path625-9"
   style="vector-effect:none;fill:#000000;fill-opacity:1;fill-rule:nonzero;stroke:none;stroke-width:0.724071;stroke-linecap:butt;stroke-linejoin:miter;stroke-miterlimit:4;stroke-dasharray:none;stroke-dashoffset:0;stroke-opacity:1"
   d="M 2461.8619 140.40841 L 2461.8619 148.94187 C 2418.4556 178.31495 2383.1051 202.73952 2340.3121 232.29104 L 2332.4895 232.29104 L 2332.4895 237.68564 L 2332.4895 242.37585 L 2332.4895 245.58282 L 2332.4895 250.2709 L 2332.4895 251.68605 L 2332.4895 256.37414 L 2332.4895 259.5811 L 2332.4895 264.27131 L 2332.4895 265.68434 L 2332.4895 270.37455 L 2332.4895 273.58152 L 2332.4895 278.27173 L 2332.4895 299.76712 L 2332.4895 300.26934 C 2380.9615 333.73661 2418.1077 359.46223 2466.8074 392.37329 C 2518.2995 356.77981 2559.5573 329.03611 2601.7532 300.35659 L 2601.7532 299.57134 L 2601.7532 289.92278 L 2601.7532 279.76774 L 2601.7532 232.20379 L 2593.8007 232.20379 C 2555.6019 206.27038 2517.5125 180.57331 2471.3827 148.72907 L 2471.3827 140.40841 L 2461.8619 140.40841 z M 2471.3827 151.91901 C 2516.9056 183.34661 2554.5618 208.76532 2592.2281 234.33184 L 2592.2281 245.13806 C 2554.5508 219.5634 2516.8875 194.14226 2471.3827 162.72948 L 2471.3827 151.91901 z M 2461.8576 152.47868 L 2461.8576 162.94229 C 2419.0596 191.90391 2383.9805 216.13295 2342.0103 245.11677 L 2342.0103 234.65743 C 2384.0167 205.64866 2419.0915 181.42072 2461.8576 152.47868 z M 2471.3827 165.91942 C 2516.9056 197.34703 2554.5618 222.76575 2592.2281 248.33225 L 2592.2281 253.6247 C 2590.8913 254.53208 2589.5026 255.47341 2588.1656 256.38052 C 2551.822 231.72143 2515.2725 207.02779 2471.3827 176.72989 L 2471.3827 165.91942 z M 2461.8576 166.4791 L 2461.8576 176.94057 C 2420.5646 204.88375 2386.2139 228.59302 2346.226 256.20815 C 2344.7668 255.20042 2343.4881 254.31965 2342.0103 253.29911 L 2342.0103 248.65784 C 2384.0167 219.64906 2419.0915 195.42112 2461.8576 166.4791 z M 2471.3827 179.91984 C 2514.3536 209.58564 2550.2413 233.84933 2585.812 257.97868 C 2583.1497 259.78462 2580.3942 261.65524 2577.7255 263.46479 C 2544.7289 241.09232 2511.1219 218.33107 2471.3827 190.89842 L 2471.3827 179.91984 z M 2461.8576 180.47951 L 2461.8576 191.11123 C 2424.2346 216.57101 2391.9599 238.81164 2356.5002 263.29454 C 2353.9049 261.50261 2351.4422 259.8071 2348.7945 257.97868 C 2387.6416 231.15203 2421.5123 207.78325 2461.8576 180.47951 z M 2466.0328 198.96797 L 2467.5821 198.96797 L 2568.1322 267.73152 L 2569.8091 268.8381 C 2539.2976 289.52297 2507.9895 310.76459 2471.3849 336.0354 L 2471.3849 323.07348 L 2461.8597 323.07348 L 2461.8597 335.47998 C 2427.0276 311.90728 2396.5679 290.942 2364.2484 268.63594 L 2466.0328 198.96797 z M 2592.2281 256.8189 L 2592.2281 259.13847 C 2591.6657 258.75669 2591.0818 258.36038 2590.5193 257.97868 C 2591.0818 257.59696 2591.6657 257.20069 2592.2281 256.8189 z M 2342.0103 256.84018 C 2342.588 257.23915 2343.0848 257.5817 2343.6596 257.97868 C 2343.0851 258.37542 2342.5877 258.71633 2342.0103 259.11506 L 2342.0103 256.84018 z M 2588.1656 259.57472 C 2589.5029 260.48206 2590.891 261.42507 2592.2281 262.33267 L 2592.2281 267.62512 C 2590.8505 268.56019 2589.42 269.53123 2588.0422 270.46606 C 2585.4211 268.68769 2582.7049 266.84348 2580.0791 265.06295 C 2582.7459 263.25462 2585.5036 261.38086 2588.1656 259.57472 z M 2346.2281 259.74922 C 2348.8927 261.58938 2351.3241 263.26096 2353.9338 265.06295 C 2351.3655 266.83638 2348.973 268.48334 2346.3515 270.29368 C 2344.8496 269.2565 2343.5318 268.35027 2342.0103 267.29952 L 2342.0103 262.65826 C 2343.4886 261.63739 2344.7684 260.75728 2346.2281 259.74922 z M 2361.6713 270.40009 C 2395.0002 293.40599 2426.0816 314.8056 2461.8597 339.0168 L 2461.8597 349.47827 C 2423.392 323.44516 2390.5849 300.83031 2354.0593 275.60954 L 2361.6713 270.40009 z M 2572.1947 270.41286 L 2580.2663 275.74148 C 2546.4723 298.65733 2512.1493 321.8932 2471.3849 350.03582 L 2471.3849 339.22534 C 2508.925 313.31063 2540.9348 291.60494 2572.1947 270.41286 z M 2592.2281 270.81718 L 2592.2281 273.30487 C 2591.6252 272.8956 2590.9987 272.47128 2590.3958 272.06209 C 2590.9991 271.65268 2591.6249 271.22668 2592.2281 270.81718 z M 2342.0103 270.84059 C 2342.6318 271.26976 2343.1669 271.63735 2343.7851 272.06422 C 2343.1669 272.4911 2342.6318 272.85866 2342.0103 273.28785 L 2342.0103 270.84059 z M 2582.6519 277.31624 L 2590.7257 282.64486 C 2553.555 307.87086 2516.3089 333.01982 2471.3849 364.0341 L 2471.3849 353.22576 C 2513.0818 324.44157 2548.0893 300.75659 2582.6519 277.31624 z M 2351.4844 277.37369 C 2389.1042 303.35146 2422.4437 326.34423 2461.8597 353.01721 L 2461.8597 363.47868 C 2419.7571 334.98566 2384.9926 310.98029 2343.8724 282.58315 L 2351.4844 277.37369 z M 2592.2281 284.8176 L 2592.2281 296.4878 L 2568.1322 312.39281 L 2471.3849 378.55589 L 2471.3849 367.22617 C 2516.8885 335.81412 2554.5514 310.39182 2592.2281 284.8176 z M 2342.0103 284.84101 C 2383.9813 313.82535 2419.0606 338.05524 2461.8597 367.01762 L 2461.8597 378.30052 L 2342.0103 296.26648 L 2342.0103 284.84101 z M 2332.4895 312.1034 L 2332.4895 322.62659 L 2332.4895 322.62872 L 2332.4895 331.23028 L 2332.4895 337.9166 L 2332.4895 337.91872 L 2332.4895 346.52029 L 2332.4895 346.52241 L 2332.4895 355.2091 L 2332.4895 363.81066 L 2332.4895 370.50123 L 2332.4895 379.10492 C 2332.6469 379.21362 2332.7813 379.30708 2332.9385 379.41562 L 2332.9385 382.86518 L 2332.9385 391.46674 L 2332.9385 398.15519 L 2332.9385 406.75888 C 2381.4106 440.22619 2418.5566 465.9517 2467.2565 498.86283 C 2518.7486 463.26927 2560.0064 435.52357 2602.2022 406.844 L 2602.2022 398.24031 L 2602.2022 391.55399 L 2602.2022 382.9503 L 2602.2022 374.26362 L 2602.2022 365.65993 L 2602.2022 358.96935 L 2602.2022 350.36566 L 2602.2022 348.81432 L 2602.2022 340.21276 L 2601.7532 340.50856 L 2601.7532 338.00385 L 2601.7532 331.3154 L 2601.7532 322.71171 L 2601.7532 321.16036 L 2601.7532 312.55667 L 2568.1322 334.74794 L 2466.8074 404.04136 L 2332.4895 312.1034 z M 2515.5418 513.58891 C 2510.2664 513.58891 2505.4174 514.81494 2500.9945 517.26617 C 2496.5716 519.71739 2493.0548 523.1537 2490.4437 527.57655 C 2487.8859 531.94612 2486.6068 536.90331 2486.6068 542.44521 C 2486.6068 547.98709 2487.8859 552.96975 2490.4437 557.3926 C 2493.0548 561.76218 2496.5716 565.19848 2500.9945 567.70298 C 2505.4174 570.15421 2510.2664 571.38025 2515.5418 571.38025 C 2520.8173 571.38025 2525.6664 570.15421 2530.0891 567.70298 C 2534.512 565.19848 2538.0013 561.76218 2540.5591 557.3926 C 2543.1169 552.96975 2544.396 547.98709 2544.396 542.44521 C 2544.396 536.90331 2543.1169 531.94612 2540.5591 527.57655 C 2538.0013 523.1537 2534.512 519.71739 2530.0891 517.26617 C 2525.7197 514.81494 2520.8706 513.58891 2515.5418 513.58891 z M 2337.701 513.90811 C 2332.0526 513.90811 2327.072 515.13415 2322.7558 517.58538 C 2318.4394 519.9833 2315.0817 523.36659 2312.6837 527.73615 C 2310.3391 532.05244 2309.1661 536.98206 2309.1661 542.52394 C 2309.1661 548.11913 2310.3391 553.10177 2312.6837 557.47134 C 2315.0817 561.78762 2318.4394 565.17089 2322.7558 567.62212 C 2327.1253 570.02004 2332.1334 571.22064 2337.7819 571.22064 C 2342.418 571.22064 2346.5479 570.39338 2350.1714 568.74147 C 2353.7949 567.03626 2356.7794 564.87904 2359.1241 562.26795 C 2361.522 559.65688 2363.3335 556.85904 2364.5591 553.87494 L 2364.5591 538.68708 L 2335.3049 538.68708 L 2335.3049 549.95721 L 2351.0503 549.95721 C 2348.7057 554.91293 2344.79 557.3926 2339.3013 557.3926 C 2334.6653 557.3926 2331.1208 556.13898 2328.6696 553.63447 C 2326.2717 551.07667 2325.0732 547.37311 2325.0732 542.52394 C 2325.0732 538.20767 2326.1911 534.77137 2328.4291 532.21356 C 2330.7205 529.65578 2333.8386 528.3767 2337.7819 528.3767 C 2339.9134 528.3767 2341.7525 528.77547 2343.2978 529.57479 C 2344.8964 530.3741 2346.1479 531.51953 2347.0538 533.01158 L 2363.9186 533.01158 C 2362.7995 527.09668 2359.9232 522.43433 2355.2872 519.02393 C 2350.6512 515.61355 2344.7883 513.90811 2337.701 513.90811 z M 2205.743 514.46779 L 2185.201 570.82057 L 2201.6678 570.82057 L 2204.7046 561.62741 L 2224.6869 561.62741 L 2227.7236 570.82057 L 2244.2692 570.82057 L 2223.808 514.46779 L 2205.743 514.46779 z M 2255.9373 514.46779 L 2255.9373 570.82057 L 2289.1071 570.82057 L 2289.1071 558.83116 L 2271.6018 558.83116 L 2271.6018 514.46779 L 2255.9373 514.46779 z M 2290.8244 514.46779 L 2290.8244 570.82057 L 2306.4911 570.82057 L 2306.4911 514.46779 L 2290.8244 514.46779 z M 2383.9392 514.46779 L 2363.3972 570.82057 L 2379.864 570.82057 L 2382.9007 561.62741 L 2402.8831 561.62741 L 2405.9219 570.82057 L 2422.4675 570.82057 L 2402.0042 514.46779 L 2383.9392 514.46779 z M 2434.1334 514.46779 L 2434.1334 570.82057 L 2456.4332 570.82057 C 2462.2949 570.82057 2467.4387 569.62211 2471.8616 567.22417 C 2476.3377 564.77295 2479.774 561.41513 2482.1719 557.15213 C 2484.6231 552.88914 2485.8492 548.04012 2485.8492 542.60481 C 2485.8492 537.11621 2484.6486 532.23963 2482.2507 527.97662 C 2479.8527 523.71364 2476.4164 520.41097 2471.9403 518.06631 C 2467.5174 515.66839 2462.3482 514.46779 2456.4332 514.46779 L 2434.1334 514.46779 z M 2557.9814 514.46779 L 2557.9814 570.82057 L 2585.8759 570.82057 C 2591.8441 570.82057 2596.4809 569.4609 2599.7848 566.74323 C 2603.0886 564.02559 2604.741 560.26898 2604.741 555.4731 C 2604.741 552.22258 2603.7547 549.34626 2601.783 546.84175 C 2599.8647 544.28395 2597.2535 542.63156 2593.9497 541.88553 C 2596.8272 541.08622 2599.1181 539.59291 2600.8233 537.40812 C 2602.5817 535.17004 2603.462 532.39979 2603.462 529.09598 C 2603.462 524.45997 2601.8096 520.86244 2598.5058 518.30466 C 2595.2552 515.74685 2590.752 514.46779 2584.997 514.46779 L 2557.9814 514.46779 z M 2607.2563 514.46779 L 2607.2563 570.82057 L 2643.3054 570.82057 L 2659.3296 570.82057 L 2662.3663 561.62741 L 2682.3508 561.62741 L 2685.3875 570.82057 L 2701.9331 570.82057 L 2681.4698 514.46779 L 2663.407 514.46779 L 2643.3054 569.60546 L 2643.3054 558.27148 L 2622.923 558.27148 L 2622.923 548.11858 L 2640.9071 548.11858 L 2640.9071 536.21003 L 2622.923 536.21003 L 2622.923 527.01687 L 2643.3054 527.01687 L 2643.3054 514.46779 L 2607.2563 514.46779 z M 2699.5731 514.46779 L 2699.5731 526.93814 L 2714.4396 526.93814 L 2714.4396 570.82057 L 2730.1063 570.82057 L 2730.1063 526.93814 L 2745.1346 526.93814 L 2745.1346 514.46779 L 2699.5731 514.46779 z M 2573.6481 526.93814 L 2581.5602 526.93814 C 2585.5035 526.93814 2587.4762 528.61599 2587.4762 531.97309 C 2587.4762 535.22363 2585.5035 536.84845 2581.5602 536.84845 L 2573.6481 536.84845 L 2573.6481 526.93814 z M 2515.5418 527.97662 C 2519.5384 527.97662 2522.6819 529.28327 2524.9733 531.89436 C 2527.3179 534.45214 2528.4889 537.96906 2528.4889 542.44521 C 2528.4889 546.81477 2527.3179 550.30411 2524.9733 552.91519 C 2522.6819 555.52628 2519.5384 556.83292 2515.5418 556.83292 C 2511.492 556.83292 2508.3209 555.55386 2506.0295 552.99606 C 2503.7381 550.38497 2502.5927 546.86806 2502.5927 542.44521 C 2502.5927 537.96906 2503.7381 534.45214 2506.0295 531.89436 C 2508.3209 529.28327 2511.492 527.97662 2515.5418 527.97662 z M 2449.8001 528.05749 L 2455.2351 528.05749 C 2459.8179 528.05749 2463.4154 529.33656 2466.0265 531.89436 C 2468.6375 534.39886 2469.9421 537.9688 2469.9421 542.60481 C 2469.9421 547.18753 2468.6375 550.72989 2466.0265 553.2344 C 2463.4154 555.73891 2459.8179 556.99253 2455.2351 556.99253 L 2449.8001 556.99253 L 2449.8001 528.05749 z M 2214.6957 531.41342 L 2220.7713 549.638 L 2208.701 549.638 L 2214.6957 531.41342 z M 2392.8919 531.41342 L 2398.9675 549.638 L 2386.8972 549.638 L 2392.8919 531.41342 z M 2672.3575 531.41342 L 2678.4331 549.638 L 2666.3628 549.638 L 2672.3575 531.41342 z M 2573.6481 547.95897 L 2582.6795 547.95897 C 2584.5979 547.95897 2586.0636 548.41292 2587.0761 549.31879 C 2588.1418 550.22468 2588.6742 551.5292 2588.6742 553.2344 C 2588.6742 556.53822 2586.7037 558.19062 2582.7604 558.19062 L 2573.6481 558.19062 L 2573.6481 547.95897 z M 2398.3482 575.56186 C 2394.5648 575.56186 2391.1285 576.30638 2388.0378 577.79843 C 2384.9472 579.23719 2382.4421 581.53018 2380.5237 584.67415 C 2378.6054 587.76482 2377.566 591.68051 2377.4061 596.42309 L 2392.594 596.42309 C 2392.5406 593.91858 2392.9395 592.02649 2393.7921 590.74759 C 2394.6447 589.41541 2395.8431 588.74936 2397.3885 588.74936 C 2398.8805 588.74936 2400.0005 589.22874 2400.7465 590.18791 C 2401.5458 591.14709 2401.9446 592.47919 2401.9446 594.18438 C 2401.9446 597.00862 2400.8267 599.99311 2398.5887 603.13707 C 2396.3506 606.22775 2393.5803 609.23982 2390.2765 612.17063 C 2386.9727 615.10144 2382.7346 618.59076 2377.5657 622.64061 L 2377.5657 634.38955 L 2418.3306 634.38955 L 2418.3306 621.68086 L 2398.3482 621.68086 C 2403.8901 617.84417 2408.4995 613.50213 2412.1763 608.65297 C 2415.9064 603.80381 2417.773 598.60693 2417.773 593.06503 C 2417.773 587.89614 2416.1737 583.68775 2412.9764 580.43721 C 2409.7792 577.18667 2404.9026 575.56186 2398.3482 575.56186 z M 2442.3498 575.56186 C 2434.3567 575.56186 2428.4938 578.19847 2424.7636 583.47393 C 2421.0336 588.74939 2419.169 595.96986 2419.169 605.13531 C 2419.169 614.40733 2421.0081 621.68083 2424.6849 626.95629 C 2428.415 632.23175 2434.3034 634.87049 2442.3498 634.87049 C 2450.3963 634.87049 2456.2846 632.23175 2460.0147 626.95629 C 2463.7448 621.68083 2465.6094 614.40733 2465.6094 605.13531 C 2465.6094 595.96986 2463.7173 588.74939 2459.9339 583.47393 C 2456.2037 578.19847 2450.3429 575.56186 2442.3498 575.56186 z M 2487.6282 575.56186 C 2483.8449 575.56186 2480.4085 576.30638 2477.3179 577.79843 C 2474.2271 579.23719 2471.7221 581.53018 2469.8037 584.67415 C 2467.8854 587.76482 2466.846 591.68051 2466.6861 596.42309 L 2481.8719 596.42309 C 2481.8186 593.91858 2482.2195 592.02649 2483.0721 590.74759 C 2483.9247 589.41541 2485.1232 588.74936 2486.6685 588.74936 C 2488.1606 588.74936 2489.2806 589.22874 2490.0266 590.18791 C 2490.8259 591.14709 2491.2246 592.47919 2491.2246 594.18438 C 2491.2246 597.00862 2490.1068 599.99311 2487.8687 603.13707 C 2485.6307 606.22775 2482.8583 609.23982 2479.5544 612.17063 C 2476.2506 615.10144 2472.0146 618.59076 2466.8458 622.64061 L 2466.8458 634.38955 L 2507.6106 634.38955 L 2507.6106 621.68086 L 2487.6282 621.68086 C 2493.1701 617.84417 2497.7794 613.50213 2501.4563 608.65297 C 2505.1864 603.80381 2507.0509 598.60693 2507.0509 593.06503 C 2507.0509 587.89614 2505.4537 583.68775 2502.2564 580.43721 C 2499.0592 577.18667 2494.1826 575.56186 2487.6282 575.56186 z M 2533.9452 577.63883 L 2509.4067 612.64944 L 2509.4067 625.5986 L 2535.305 625.5986 L 2535.305 635.1897 L 2551.1313 635.1897 L 2551.1313 625.5986 L 2557.2856 625.5986 L 2557.2856 612.0089 L 2551.1313 612.0089 L 2551.1313 577.63883 L 2533.9452 577.63883 z M 2442.3498 590.34752 C 2445.4938 590.34752 2447.5704 591.62659 2448.5829 594.18438 C 2449.5953 596.6889 2450.1023 600.33944 2450.1023 605.13531 C 2450.1023 610.03776 2449.5953 613.7689 2448.5829 616.3267 C 2447.6237 618.83122 2445.5471 620.0827 2442.3498 620.0827 C 2439.1526 620.0827 2437.0462 618.83122 2436.0338 616.3267 C 2435.0746 613.7689 2434.5952 610.03776 2434.5952 605.13531 C 2434.5952 600.33944 2435.1022 596.6889 2436.1146 594.18438 C 2437.1271 591.62659 2439.2059 590.34752 2442.3498 590.34752 z M 2536.5031 595.30374 L 2536.5031 612.0089 L 2525.4734 612.0089 L 2536.5031 595.30374 z " />
      
    </g>
  </g>
</svg>
