<?xml version="1.0" encoding="UTF-8" standalone="no"?>
<!-- Created with Inkscape (http://www.inkscape.org/) -->

<svg
   width="132.80444mm"
   height="115.45952mm"
   viewBox="0 0 132.80444 115.45952"
   version="1.1"
   id="svg852"
   inkscape:version="1.2.2 (b0a8486541, 2022-12-01)"
   sodipodi:docname="Batalha de Vidro Vertical.svg"
   xmlns:inkscape="http://www.inkscape.org/namespaces/inkscape"
   xmlns:sodipodi="http://sodipodi.sourceforge.net/DTD/sodipodi-0.dtd"
   xmlns="http://www.w3.org/2000/svg"
   xmlns:svg="http://www.w3.org/2000/svg"
   xmlns:rdf="http://www.w3.org/1999/02/22-rdf-syntax-ns#"
   xmlns:cc="http://creativecommons.org/ns#"
   xmlns:dc="http://purl.org/dc/elements/1.1/">
  <defs
     id="defs846" />
  <sodipodi:namedview
     id="base"
     pagecolor="#ffffff"
     bordercolor="#666666"
     borderopacity="1.0"
     inkscape:pageopacity="0.0"
     inkscape:pageshadow="2"
     inkscape:zoom="0.9899495"
     inkscape:cx="-2.5253813"
     inkscape:cy="293.95439"
     inkscape:document-units="mm"
     inkscape:current-layer="g4937"
     showgrid="false"
     inkscape:window-width="1920"
     inkscape:window-height="1009"
     inkscape:window-x="-8"
     inkscape:window-y="-2"
     inkscape:window-maximized="1"
     fit-margin-top="0"
     fit-margin-left="0"
     fit-margin-right="0"
     fit-margin-bottom="0"
     inkscape:showpageshadow="2"
     inkscape:pagecheckerboard="0"
     inkscape:deskcolor="#d1d1d1"
     showguides="true">
    <sodipodi:guide
       position="-10.733751,42.954913"
       orientation="0,-1"
       id="guide464"
       inkscape:locked="false" />
    <sodipodi:guide
       position="-10.934203,22.57561"
       orientation="0,-1"
       id="guide466"
       inkscape:locked="false" />
  </sodipodi:namedview>
  <metadata
     id="metadata849">
    <rdf:RDF>
      <cc:Work
         rdf:about="">
        <dc:format>image/svg+xml</dc:format>
        <dc:type
           rdf:resource="http://purl.org/dc/dcmitype/StillImage" />
      </cc:Work>
    </rdf:RDF>
  </metadata>
  <g
     inkscape:label="Camada 1"
     inkscape:groupmode="layer"
     id="layer1"
     transform="translate(-40.224623,7.29036)">
    <g
       transform="translate(28.296092,132.48477)"
       id="g4937">
      <g
         id="g851"
         transform="matrix(1.8362677,0,0,1.624995,74.381148,-30.568801)"
         inkscape:export-filename="Batalha de Vidro Vertical.png"
         inkscape:export-xdpi="219.99001"
         inkscape:export-ydpi="219.99001">
        <rect
           y="-67.204102"
           x="-19.318155"
           height="20.410715"
           width="20.410715"
           id="rect71-2"
           style="fill:#004bff;fill-opacity:1;stroke-width:0.264583" />
        <rect
           y="-44.676716"
           x="-19.318155"
           height="20.410715"
           width="20.410715"
           id="rect71-3-7"
           style="fill:#ffff00;stroke-width:0.264583" />
        <rect
           y="-44.676716"
           x="3.209218"
           height="20.410715"
           width="20.410715"
           id="rect71-3-6-0"
           style="fill:#ff0000;stroke-width:0.264583" />
        <g
           id="text105-9"
           style="font-style:normal;font-weight:normal;font-size:28.7401px;line-height:1.25;font-family:sans-serif;letter-spacing:0px;word-spacing:0px;fill:#ffffff;fill-opacity:1;stroke:none;stroke-width:0.718502"
           aria-label="BATALHA" />
        <g
           id="text105-3-6"
           style="font-style:normal;font-weight:normal;font-size:28.7401px;line-height:1.25;font-family:sans-serif;letter-spacing:0px;word-spacing:0px;fill:#000000;fill-opacity:1;stroke:none;stroke-width:0.718502"
           aria-label="DE VIDRO" />
      </g>
      <g
         id="g462"
         transform="matrix(1.1374881,0,0,1.1374881,66.83495,94.828079)"
         style="font-weight:bold;font-size:25.4px;font-family:poppins;-inkscape-font-specification:'poppins Bold';fill:#ffffff;stroke-width:0.264583">
        <path
           d="m -37.417081,-133.81066 q 1.5494,0.3302 2.4892,1.5494 0.9398,1.1938 0.9398,2.7432 0,2.2352 -1.5748,3.556 -1.5494,1.2954 -4.3434,1.2954 h -8.3058 v -17.8308 h 8.0264 q 2.7178,0 4.2418,1.2446 1.5494,1.2446 1.5494,3.3782 0,1.5748 -0.8382,2.6162 -0.8128,1.0414 -2.1844,1.4478 z m -6.4516,-1.4732 h 2.8448 q 1.0668,0 1.6256,-0.4572 0.5842,-0.4826 0.5842,-1.397 0,-0.9144 -0.5842,-1.397 -0.5588,-0.4826 -1.6256,-0.4826 h -2.8448 z m 3.2004,7.112 q 1.0922,0 1.6764,-0.4826 0.6096,-0.508 0.6096,-1.4478 0,-0.9398 -0.635,-1.4732 -0.6096,-0.5334 -1.7018,-0.5334 h -3.1496 v 3.937 z"
           id="path379"
           style="fill:#ffffff" />
        <path
           d="m -20.373671,-127.81626 h -6.6548 l -1.0668,3.1496 h -4.5466 l 6.4516,-17.8308 h 5.0292 l 6.4516,17.8308 h -4.5974 z m -1.1176,-3.3528 -2.2098,-6.5278 -2.1844,6.5278 z"
           id="path381"
           style="fill:#ffffff" />
        <path
           d="m 0.0733162,-142.49746 v 3.4798 h -4.7243999 v 14.351 h -4.3434 v -14.351 h -4.7244003 v -3.4798 z"
           id="path383"
           style="fill:#ffffff" />
        <path
           d="m 13.357507,-127.81626 h -6.6548 l -1.0668,3.1496 H 1.0893071 l 6.4515999,-17.8308 h 5.0292 l 6.4516,17.8308 h -4.5974 z m -1.1176,-3.3528 -2.2098,-6.5278 -2.1844,6.5278 z"
           id="path385"
           style="fill:#ffffff" />
        <path
           d="m 25.320895,-128.01946 h 5.6896 v 3.3528 h -10.033 v -17.8308 h 4.3434 z"
           id="path387"
           style="fill:#ffffff" />
        <path
           d="m 48.536478,-142.49746 v 17.8308 h -4.3434 v -7.3406 h -6.7564 v 7.3406 h -4.3434 v -17.8308 h 4.3434 v 6.985 h 6.7564 v -6.985 z"
           id="path389"
           style="fill:#ffffff" />
        <path
           d="m 62.760499,-127.81626 h -6.6548 l -1.0668,3.1496 h -4.5466 l 6.4516,-17.8308 h 5.0292 l 6.4516,17.8308 h -4.5974 z m -1.1176,-3.3528 -2.2098,-6.5278 -2.1844,6.5278 z"
           id="path391"
           style="fill:#ffffff" />
      </g>
      <g
         id="g475"
         transform="matrix(1.0154502,0,0,1.0154502,-0.2140469,0.39334749)"
         style="font-weight:bold;font-size:25.4px;font-family:poppins;-inkscape-font-specification:'poppins Bold';stroke-width:0.264583">
        <g
           id="g536"
           transform="matrix(1.1075203,0,0,1.1075203,-15.235564,3.8634635)">
          <path
             d="m 31.233602,-43.467699 q 2.8194,0 4.9276,1.1176 2.1082,1.1176 3.2512,3.1496 1.1684,2.0066 1.1684,4.6482 0,2.6162 -1.1684,4.6482 -1.143,2.032 -3.2766,3.1496 -2.1082,1.1176 -4.9022,1.1176 h -6.6802 v -17.8308 z m -0.2794,14.0716 q 2.4638,0 3.8354,-1.3462 1.3716,-1.3462 1.3716,-3.81 0,-2.4638 -1.3716,-3.8354 -1.3716,-1.3716 -3.8354,-1.3716 h -2.0574 v 10.3632 z"
             id="path393"
             style="fill:#ffffff" />
          <path
             d="m 47.362584,-39.987899 v 3.6068 h 5.816605 v 3.3528 h -5.816605 v 3.9116 h 6.578605 v 3.4798 H 43.019184 v -17.8308 h 10.922005 v 3.4798 z"
             id="path395"
             style="fill:#ffffff" />
          <path
             d="m 80.766085,-43.467699 -6.3246,17.8308 h -5.4356 l -6.3246,-17.8308 h 4.6228 l 4.4196,13.462 4.445,-13.462 z"
             id="path397"
             style="fill:#ffffff" />
          <path
             d="m 86.912875,-43.467699 v 17.8308 h -4.3434 v -17.8308 z"
             id="path399"
             style="fill:#ffffff" />
          <path
             d="m 96.742675,-43.467699 q 2.8194,0 4.927595,1.1176 2.1082,1.1176 3.2512,3.1496 1.1684,2.0066 1.1684,4.6482 0,2.6162 -1.1684,4.6482 -1.143,2.032 -3.2766,3.1496 -2.108195,1.1176 -4.902195,1.1176 h -6.6802 v -17.8308 z m -0.2794,14.0716 q 2.4638,0 3.835405,-1.3462 1.37159,-1.3462 1.37159,-3.81 0,-2.4638 -1.37159,-3.8354 -1.371605,-1.3716 -3.835405,-1.3716 h -2.0574 v 10.3632 z"
             id="path401"
             style="fill:#ffffff" />
          <path
             d="m 117.62146,-25.636899 -3.7084,-6.731 h -1.0414 v 6.731 h -4.3434 v -17.8308 h 7.2898 q 2.1082,0 3.5814,0.7366 1.4986,0.7366 2.2352,2.032 0.7366,1.27 0.7366,2.8448 0,1.778 -1.016,3.175 -0.9906,1.397 -2.9464,1.9812 l 4.1148,7.0612 z m -4.7498,-9.8044 h 2.6924 q 1.1938,0 1.778,-0.5842 0.6096,-0.5842 0.6096,-1.651 0,-1.016 -0.6096,-1.6002 -0.5842,-0.5842 -1.778,-0.5842 h -2.6924 z"
             id="path403"
             style="fill:#ffffff" />
          <path
             d="m 133.52187,-25.459099 q -2.5146,0 -4.6228,-1.1684 -2.0828,-1.1684 -3.3274,-3.2512 -1.2192,-2.1082 -1.2192,-4.7244 0,-2.6162 1.2192,-4.699 1.2446,-2.0828 3.3274,-3.2512 2.1082,-1.1684 4.6228,-1.1684 2.51459,0 4.59739,1.1684 2.1082,1.1684 3.302,3.2512 1.2192,2.0828 1.2192,4.699 0,2.6162 -1.2192,4.7244 -1.2192,2.0828 -3.302,3.2512 -2.0828,1.1684 -4.59739,1.1684 z m 0,-3.9624 q 2.13359,0 3.40359,-1.4224 1.2954,-1.4224 1.2954,-3.7592 0,-2.3622 -1.2954,-3.7592 -1.27,-1.4224 -3.40359,-1.4224 -2.159,0 -3.4544,1.397 -1.27,1.397 -1.27,3.7846 0,2.3622 1.27,3.7846 1.2954,1.397 3.4544,1.397 z"
             id="path405"
             style="fill:#ffffff" />
        </g>
      </g>
    </g>
  </g>
</svg>
