<?xml version="1.0" encoding="UTF-8" standalone="no"?>
<!-- Created with Inkscape (http://www.inkscape.org/) -->

<svg
   xmlns:dc="http://purl.org/dc/elements/1.1/"
   xmlns:cc="http://creativecommons.org/ns#"
   xmlns:rdf="http://www.w3.org/1999/02/22-rdf-syntax-ns#"
   xmlns:svg="http://www.w3.org/2000/svg"
   xmlns="http://www.w3.org/2000/svg"
   xmlns:sodipodi="http://sodipodi.sourceforge.net/DTD/sodipodi-0.dtd"
   xmlns:inkscape="http://www.inkscape.org/namespaces/inkscape"
   width="172.54413mm"
   height="43.128937mm"
   viewBox="0 0 172.54413 43.128937"
   version="1.1"
   id="svg852"
   inkscape:version="0.92.4 (5da689c313, 2019-01-14)"
   sodipodi:docname="Batalha de Vidro.svg">
  <defs
     id="defs846" />
  <sodipodi:namedview
     id="base"
     pagecolor="#ffffff"
     bordercolor="#666666"
     borderopacity="1.0"
     inkscape:pageopacity="0.0"
     inkscape:pageshadow="2"
     inkscape:zoom="0.49497475"
     inkscape:cx="1.885432"
     inkscape:cy="89.144602"
     inkscape:document-units="mm"
     inkscape:current-layer="g4937"
     showgrid="false"
     inkscape:window-width="1366"
     inkscape:window-height="705"
     inkscape:window-x="-8"
     inkscape:window-y="-8"
     inkscape:window-maximized="1"
     fit-margin-top="0"
     fit-margin-left="0"
     fit-margin-right="0"
     fit-margin-bottom="0" />
  <metadata
     id="metadata849">
    <rdf:RDF>
      <cc:Work
         rdf:about="">
        <dc:format>image/svg+xml</dc:format>
        <dc:type
           rdf:resource="http://purl.org/dc/dcmitype/StillImage" />
        <dc:title></dc:title>
      </cc:Work>
    </rdf:RDF>
  </metadata>
  <g
     inkscape:label="Camada 1"
     inkscape:groupmode="layer"
     id="layer1"
     transform="translate(-8.9779367,-65.281064)">
    <g
       transform="translate(28.296092,132.48477)"
       id="g4937">
      <g
         id="g851"
         transform="matrix(1,0,0,0.99999513,0,6.8695295e-5)">
        <rect
           y="-67.204102"
           x="-19.318155"
           height="20.410715"
           width="20.410715"
           id="rect71-2"
           style="fill:#004bff;fill-opacity:1;stroke-width:0.26458332" />
        <rect
           y="-44.676716"
           x="-19.318155"
           height="20.410715"
           width="20.410715"
           id="rect71-3-7"
           style="fill:#ffff00;stroke-width:0.26458332" />
        <rect
           y="-44.676716"
           x="3.209218"
           height="20.410715"
           width="20.410715"
           id="rect71-3-6-0"
           style="fill:#ff0000;stroke-width:0.26458332" />
        <g
           id="text105-9"
           style="font-style:normal;font-weight:normal;font-size:28.74006462px;line-height:1.25;font-family:sans-serif;letter-spacing:0px;word-spacing:0px;fill:#ffffff;fill-opacity:1;stroke:none;stroke-width:0.71850151"
           aria-label="BATALHA">
          <path
             id="path1432"
             style="font-style:normal;font-variant:normal;font-weight:300;font-stretch:normal;font-family:Raleway;-inkscape-font-specification:'Raleway Light';fill:#ffffff;stroke-width:0.71850151"
             d="m 18.151715,-52.078863 q 0,1.120862 -0.431101,2.098024 -0.431101,0.948423 -1.178343,1.666924 -0.747241,0.718502 -1.753144,1.120863 -1.005902,0.402361 -2.126764,0.402361 H 3.1206611 v -20.405446 h 9.5129609 q 1.063383,0 1.925585,0.459841 0.862202,0.459841 1.465743,1.207082 0.603541,0.718502 0.919682,1.666924 0.344881,0.919682 0.344881,1.868104 0,1.551964 -0.775982,2.845267 -0.775982,1.293303 -2.155505,1.896844 1.753144,0.517321 2.759047,1.954324 1.034642,1.408264 1.034642,3.218888 z m -1.465743,-0.201181 q 0,-0.804722 -0.287401,-1.551963 -0.287401,-0.775982 -0.804722,-1.350783 -0.517321,-0.603542 -1.235823,-0.948422 -0.689761,-0.344881 -1.494483,-0.344881 H 4.5864044 v 8.363359 h 8.0759586 q 0.862201,0 1.580703,-0.344881 0.747242,-0.344881 1.264563,-0.919682 0.546061,-0.603542 0.862202,-1.350783 0.316141,-0.747242 0.316141,-1.551964 z M 4.5864044,-65.874094 v 8.162178 h 7.4724166 q 0.833462,0 1.523224,-0.344881 0.689761,-0.34488 1.178342,-0.890942 0.517321,-0.574801 0.804722,-1.322043 0.287401,-0.747241 0.287401,-1.523223 0,-0.833462 -0.287401,-1.551964 -0.258661,-0.747241 -0.747242,-1.293303 -0.459841,-0.574801 -1.120862,-0.890942 -0.661022,-0.34488 -1.465743,-0.34488 z"
             inkscape:connector-curvature="0" />
          <path
             id="path1434"
             style="font-style:normal;font-variant:normal;font-weight:300;font-stretch:normal;font-family:Raleway;-inkscape-font-specification:'Raleway Light';fill:#ffffff;stroke-width:0.71850151"
             d="m 28.109697,-67.196137 h 1.264563 l 8.62202,20.405446 h -1.551964 l -2.845266,-6.725175 h -9.742882 l -2.845267,6.725175 h -1.580703 z m 5.086992,12.473188 -4.45471,-10.691304 -4.54093,10.691304 z"
             inkscape:connector-curvature="0" />
          <path
             id="path1436"
             style="font-style:normal;font-variant:normal;font-weight:300;font-stretch:normal;font-family:Raleway;-inkscape-font-specification:'Raleway Light';fill:#ffffff;stroke-width:0.71850151"
             d="m 53.356946,-65.874094 h -7.472417 v 19.083403 h -1.465743 v -19.083403 h -7.472417 v -1.322043 h 16.410577 z"
             inkscape:connector-curvature="0" />
          <path
             id="path1438"
             style="font-style:normal;font-variant:normal;font-weight:300;font-stretch:normal;font-family:Raleway;-inkscape-font-specification:'Raleway Light';fill:#ffffff;stroke-width:0.71850151"
             d="m 60.891333,-67.196137 h 1.264562 l 8.62202,20.405446 h -1.551964 l -2.845266,-6.725175 h -9.742882 l -2.845266,6.725175 h -1.580704 z m 5.086991,12.473188 -4.45471,-10.691304 -4.54093,10.691304 z"
             inkscape:connector-curvature="0" />
          <path
             id="path1440"
             style="font-style:normal;font-variant:normal;font-weight:300;font-stretch:normal;font-family:Raleway;-inkscape-font-specification:'Raleway Light';fill:#ffffff;stroke-width:0.71850151"
             d="m 73.904299,-46.790691 v -20.405446 h 1.465743 v 19.083403 H 87.55583 v 1.322043 z"
             inkscape:connector-curvature="0" />
          <path
             id="path1442"
             style="font-style:normal;font-variant:normal;font-weight:300;font-stretch:normal;font-family:Raleway;-inkscape-font-specification:'Raleway Light';fill:#ffffff;stroke-width:0.71850151"
             d="m 106.38281,-67.196137 v 20.405446 h -1.46574 v -9.771622 H 92.041521 v 9.771622 h -1.465744 v -20.405446 h 1.465744 v 9.311781 h 12.875549 v -9.311781 z"
             inkscape:connector-curvature="0" />
          <path
             id="path1444"
             style="font-style:normal;font-variant:normal;font-weight:300;font-stretch:normal;font-family:Raleway;-inkscape-font-specification:'Raleway Light';fill:#ffffff;stroke-width:0.71850151"
             d="m 118.0908,-67.196137 h 1.26456 l 8.62202,20.405446 h -1.55196 l -2.84527,-6.725175 h -9.74288 l -2.84527,6.725175 h -1.5807 z m 5.08699,12.473188 -4.45471,-10.691304 -4.54093,10.691304 z"
             inkscape:connector-curvature="0" />
        </g>
        <g
           id="text105-3-6"
           style="font-style:normal;font-weight:normal;font-size:28.74006653px;line-height:1.25;font-family:sans-serif;letter-spacing:0px;word-spacing:0px;fill:#000000;fill-opacity:1;stroke:none;stroke-width:0.71850151"
           aria-label="DE VIDRO">
          <path
             id="path1417"
             style="font-style:normal;font-variant:normal;font-weight:300;font-stretch:normal;font-family:Raleway;-inkscape-font-specification:'Raleway Light';fill:#ffffff;stroke-width:0.71850151"
             d="m 25.557659,-24.218657 v -20.405447 h 6.782655 q 2.414166,0 4.22479,0.804722 1.839364,0.804722 3.046447,2.184245 1.207083,1.379523 1.810624,3.247628 0.603542,1.839364 0.603542,3.937389 0,2.327945 -0.689762,4.22479 -0.661021,1.868104 -1.925584,3.218887 -1.264563,1.322043 -3.075187,2.069285 -1.781885,0.718501 -3.99487,0.718501 z M 40.559973,-34.45012 q 0,-1.925585 -0.546061,-3.535028 -0.546061,-1.638184 -1.609444,-2.816527 -1.034642,-1.178343 -2.557866,-1.839364 -1.523223,-0.661022 -3.506288,-0.661022 H 27.023402 V -25.5407 h 5.316912 q 2.011805,0 3.535028,-0.661021 1.551964,-0.689762 2.586606,-1.896845 1.034643,-1.207082 1.551964,-2.816526 0.546061,-1.638184 0.546061,-3.535028 z"
             inkscape:connector-curvature="0" />
          <path
             id="path1419"
             style="font-style:normal;font-variant:normal;font-weight:300;font-stretch:normal;font-family:Raleway;-inkscape-font-specification:'Raleway Light';fill:#ffffff;stroke-width:0.71850151"
             d="m 59.640234,-25.5407 v 1.322043 H 46.046182 v -20.405447 h 13.335391 v 1.322043 H 47.511925 v 8.018479 h 10.375164 v 1.264563 H 47.511925 v 8.478319 z"
             inkscape:connector-curvature="0" />
          <path
             id="path1421"
             style="font-style:normal;font-variant:normal;font-weight:300;font-stretch:normal;font-family:Raleway;-inkscape-font-specification:'Raleway Light';fill:#ffffff;stroke-width:0.71850151"
             d="m 69.381321,-44.624104 7.759818,18.566083 7.759818,-18.566083 h 1.551963 l -8.62202,20.405447 h -1.350783 l -8.65076,-20.405447 z"
             inkscape:connector-curvature="0" />
          <path
             id="path1423"
             style="font-style:normal;font-variant:normal;font-weight:300;font-stretch:normal;font-family:Raleway;-inkscape-font-specification:'Raleway Light';fill:#ffffff;stroke-width:0.71850151"
             d="m 89.605342,-24.218657 v -20.405447 h 1.465744 v 20.405447 z"
             inkscape:connector-curvature="0" />
          <path
             id="path1425"
             style="font-style:normal;font-variant:normal;font-weight:300;font-stretch:normal;font-family:Raleway;-inkscape-font-specification:'Raleway Light';fill:#ffffff;stroke-width:0.71850151"
             d="m 96.397434,-24.218657 v -20.405447 h 6.782656 q 2.41416,0 4.22479,0.804722 1.83936,0.804722 3.04645,2.184245 1.20708,1.379523 1.81062,3.247628 0.60354,1.839364 0.60354,3.937389 0,2.327945 -0.68976,4.22479 -0.66102,1.868104 -1.92558,3.218887 -1.26457,1.322043 -3.07519,2.069285 -1.78189,0.718501 -3.99487,0.718501 z M 111.39975,-34.45012 q 0,-1.925585 -0.54606,-3.535028 -0.54606,-1.638184 -1.60945,-2.816527 -1.03464,-1.178343 -2.55786,-1.839364 -1.52323,-0.661022 -3.50629,-0.661022 H 97.863177 V -25.5407 h 5.316913 q 2.0118,0 3.53503,-0.661021 1.55196,-0.689762 2.5866,-1.896845 1.03465,-1.207082 1.55197,-2.816526 0.54606,-1.638184 0.54606,-3.535028 z"
             inkscape:connector-curvature="0" />
          <path
             id="path1427"
             style="font-style:normal;font-variant:normal;font-weight:300;font-stretch:normal;font-family:Raleway;-inkscape-font-specification:'Raleway Light';fill:#ffffff;stroke-width:0.71850151"
             d="m 116.88595,-24.218657 v -20.405447 h 8.47832 q 1.2933,0 2.38543,0.546061 1.09212,0.546062 1.8681,1.465744 0.80472,0.890942 1.23582,2.040545 0.45984,1.120862 0.45984,2.270465 0,1.120862 -0.34488,2.184245 -0.34488,1.034642 -0.97716,1.868104 -0.63228,0.833462 -1.52322,1.379523 -0.89094,0.546062 -1.95433,0.718502 l 5.087,7.932258 h -1.69567 l -4.94329,-7.702337 h -6.61022 v 7.702337 z m 1.46574,-9.05312 h 7.15628 q 0.97716,0 1.78189,-0.431101 0.80472,-0.431101 1.37952,-1.120863 0.5748,-0.718502 0.8622,-1.609444 0.31614,-0.919682 0.31614,-1.868104 0,-0.977162 -0.37362,-1.868104 -0.34488,-0.919683 -0.97716,-1.609444 -0.60354,-0.689762 -1.43701,-1.092123 -0.80472,-0.431101 -1.75314,-0.431101 h -6.9551 z"
             inkscape:connector-curvature="0" />
          <path
             id="path1429"
             style="font-style:normal;font-variant:normal;font-weight:300;font-stretch:normal;font-family:Raleway;-inkscape-font-specification:'Raleway Light';fill:#ffffff;stroke-width:0.71850151"
             d="m 143.65553,-24.074956 q -2.12677,0 -3.87991,-0.890942 -1.75314,-0.890942 -3.01771,-2.327946 -1.26456,-1.437003 -1.95432,-3.305107 -0.68976,-1.868105 -0.68976,-3.822429 0,-2.040545 0.7185,-3.908649 0.74724,-1.868105 2.0118,-3.305108 1.29331,-1.437003 3.04645,-2.270465 1.75314,-0.862202 3.79369,-0.862202 2.12676,0 3.87991,0.919682 1.78188,0.890942 3.01771,2.356685 1.26456,1.465744 1.95432,3.333848 0.68976,1.839364 0.68976,3.736209 0,2.069285 -0.74724,3.937389 -0.7185,1.868104 -2.01181,3.305108 -1.26456,1.408263 -3.0177,2.270465 -1.75315,0.833462 -3.79369,0.833462 z m -8.07596,-10.346424 q 0,1.753144 0.5748,3.391328 0.60354,1.609443 1.66693,2.874006 1.09212,1.235823 2.5866,1.983065 1.49449,0.747242 3.27637,0.747242 1.83936,0 3.30511,-0.775982 1.49448,-0.775982 2.52912,-2.040545 1.06339,-1.293303 1.63819,-2.902747 0.5748,-1.609443 0.5748,-3.276367 0,-1.753144 -0.60354,-3.362588 -0.60354,-1.638184 -1.69567,-2.874007 -1.06338,-1.264563 -2.52912,-2.011804 -1.46575,-0.747242 -3.21889,-0.747242 -1.83937,0 -3.33385,0.775982 -1.49448,0.775982 -2.55786,2.069285 -1.06339,1.264563 -1.63819,2.874006 -0.5748,1.609444 -0.5748,3.276368 z"
             inkscape:connector-curvature="0" />
        </g>
      </g>
    </g>
  </g>
</svg>
