<?xml version="1.0" encoding="UTF-8" standalone="no"?>
<!-- Created with Inkscape (http://www.inkscape.org/) -->

<svg
   width="89.808495mm"
   height="102.24389mm"
   viewBox="0 0 89.808495 102.24389"
   version="1.1"
   id="svg54"
   inkscape:version="1.1 (c68e22c387, 2021-05-23)"
   sodipodi:docname="nacional so caxa.svg"
   xmlns:inkscape="http://www.inkscape.org/namespaces/inkscape"
   xmlns:sodipodi="http://sodipodi.sourceforge.net/DTD/sodipodi-0.dtd"
   xmlns="http://www.w3.org/2000/svg"
   xmlns:svg="http://www.w3.org/2000/svg">
  <sodipodi:namedview
     id="namedview56"
     pagecolor="#505050"
     bordercolor="#eeeeee"
     borderopacity="1"
     inkscape:pageshadow="0"
     inkscape:pageopacity="0"
     inkscape:pagecheckerboard="0"
     inkscape:document-units="mm"
     showgrid="false"
     inkscape:zoom="1.4681257"
     inkscape:cx="85.142573"
     inkscape:cy="204.00161"
     inkscape:window-width="2560"
     inkscape:window-height="1009"
     inkscape:window-x="-8"
     inkscape:window-y="-8"
     inkscape:window-maximized="1"
     inkscape:current-layer="layer1"
     fit-margin-top="0"
     fit-margin-left="0"
     fit-margin-right="0"
     fit-margin-bottom="0" />
  <defs
     id="defs51" />
  <g
     inkscape:label="Camada 1"
     inkscape:groupmode="layer"
     id="layer1"
     transform="translate(-59.51833,-12.785783)">
    <g
       id="g588"
       style="fill:#ffffff">
      <path
         id="rect145"
         style="fill:#ffffff;stroke-width:3.77953"
         d="m 224.98633,176.23828 0.92773,133.12695 67.50391,50.05469 40.92383,-30.52734 c 5.88312,1.48831 11.80914,2.94371 17.70898,4.36523 5.89984,1.42153 11.77351,2.80928 17.55078,4.16407 11.55454,2.70957 22.72463,5.28561 32.95313,7.72851 l 27.01758,-19.7793 z"
         transform="scale(0.26458333)" />
      <path
         id="path578"
         style="fill:#ffffff;stroke-width:3.77953"
         d="m 355.33789,161.26953 a 160.36644,158.84199 0 0 0 -6.09375,0.0508 160.36644,158.84199 0 0 0 -11.5957,0.85157 160.36644,158.84199 0 0 0 -11.50391,1.68164 70.160319,69.493372 0 0 0 -1.24805,5.68164 70.160319,69.493372 0 0 0 -0.76367,5.76367 70.160319,69.493372 0 0 0 -0.27539,5.80859 70.160319,69.493372 0 0 0 0.51172,8.37696 70.160319,69.493372 0 0 0 1.52734,8.2539 70.160319,69.493372 0 0 0 2.51954,8.01172 70.160319,69.493372 0 0 0 3.47851,7.65234 70.160319,69.493372 0 0 0 4.38281,7.18164 70.160319,69.493372 0 0 0 5.22461,6.60743 70.160319,69.493372 0 0 0 5.99024,5.93359 70.160319,69.493372 0 0 0 6.66992,5.17578 70.160319,69.493372 0 0 0 7.25,4.33984 70.160319,69.493372 0 0 0 7.72656,3.44532 70.160319,69.493372 0 0 0 8.08789,2.49609 70.160319,69.493372 0 0 0 8.33399,1.51367 70.160319,69.493372 0 0 0 8.45703,0.50586 70.160319,69.493372 0 0 0 8.05078,-0.46094 70.160319,69.493372 0 0 0 7.94336,-1.37304 70.160319,69.493372 0 0 0 7.73047,-2.26563 70.160319,69.493372 0 0 0 7.41992,-3.13086 70.160319,69.493372 0 0 0 7.00586,-3.95312 70.160319,69.493372 0 0 0 6.50195,-4.72266 70.160319,69.493372 0 0 0 5.91211,-5.43164 70.160319,69.493372 0 0 0 5.24609,-6.0664 70.160319,69.493372 0 0 0 4.50586,-6.62305 70.160319,69.493372 0 0 0 3.71094,-7.08984 70.160319,69.493372 0 0 0 2.86328,-7.4668 160.36644,158.84199 0 0 0 -9.90039,-8.13477 160.36644,158.84199 0 0 0 -10.52734,-7.32226 160.36644,158.84199 0 0 0 -11.08399,-6.46485 160.36644,158.84199 0 0 0 -11.57421,-5.5625 160.36644,158.84199 0 0 0 -11.98438,-4.62695 160.36644,158.84199 0 0 0 -12.32227,-3.6582 160.36644,158.84199 0 0 0 -12.57812,-2.66993 160.36644,158.84199 0 0 0 -12.75195,-1.66406 160.36644,158.84199 0 0 0 -12.84766,-0.64453 z"
         transform="scale(0.26458333)" />
      <path
         id="path576"
         style="fill:#ffffff;stroke-width:3.77953"
         d="m 355.33789,161.26953 a 160.36644,158.84199 0 0 1 12.84766,0.64453 160.36644,158.84199 0 0 1 12.75195,1.66406 160.36644,158.84199 0 0 1 12.57812,2.66993 160.36644,158.84199 0 0 1 12.32227,3.6582 160.36644,158.84199 0 0 1 11.98438,4.62695 160.36644,158.84199 0 0 1 11.57421,5.5625 160.36644,158.84199 0 0 1 11.08399,6.46485 160.36644,158.84199 0 0 1 10.52734,7.32226 160.36644,158.84199 0 0 1 9.90039,8.13477 70.160319,69.493372 0 0 1 -2.86328,7.4668 70.160319,69.493372 0 0 1 -3.71094,7.08984 70.160319,69.493372 0 0 1 -4.50586,6.62305 70.160319,69.493372 0 0 1 -5.24609,6.0664 70.160319,69.493372 0 0 1 -5.91211,5.43164 70.160319,69.493372 0 0 1 -6.50195,4.72266 70.160319,69.493372 0 0 1 -7.00586,3.95312 70.160319,69.493372 0 0 1 -7.41992,3.13086 70.160319,69.493372 0 0 1 -7.73047,2.26563 70.160319,69.493372 0 0 1 -7.94336,1.37304 70.160319,69.493372 0 0 1 -8.05078,0.46094 70.160319,69.493372 0 0 1 -8.45703,-0.50586 70.160319,69.493372 0 0 1 -8.33399,-1.51367 70.160319,69.493372 0 0 1 -8.08789,-2.49609 70.160319,69.493372 0 0 1 -7.72656,-3.44532 70.160319,69.493372 0 0 1 -7.25,-4.33984 70.160319,69.493372 0 0 1 -6.66992,-5.17578 70.160319,69.493372 0 0 1 -5.99024,-5.93359 70.160319,69.493372 0 0 1 -5.22461,-6.60743 70.160319,69.493372 0 0 1 -4.38281,-7.18164 70.160319,69.493372 0 0 1 -3.47851,-7.65234 70.160319,69.493372 0 0 1 -2.51954,-8.01172 70.160319,69.493372 0 0 1 -1.52734,-8.2539 70.160319,69.493372 0 0 1 -0.51172,-8.37696 70.160319,69.493372 0 0 1 0.27539,-5.80859 70.160319,69.493372 0 0 1 0.76367,-5.76367 70.160319,69.493372 0 0 1 1.24805,-5.68164 160.36644,158.84199 0 0 1 11.50391,-1.68164 160.36644,158.84199 0 0 1 11.5957,-0.85157 160.36644,158.84199 0 0 1 6.09375,-0.0508 z"
         transform="scale(0.26458333)" />
      <path
         id="path574"
         style="fill:#ffffff;stroke-width:3.77953"
         d="m 394.01758,111.61523 a 70.160319,69.493372 0 0 0 -8.09766,0.46875 70.160319,69.493372 0 0 0 -7.99023,1.39258 70.160319,69.493372 0 0 0 -7.77344,2.29688 70.160319,69.493372 0 0 0 -7.45313,3.16992 70.160319,69.493372 0 0 0 -7.03515,4.00195 70.160319,69.493372 0 0 0 -6.52149,4.77735 70.160319,69.493372 0 0 0 -5.91992,5.49218 70.160319,69.493372 0 0 0 -5.24218,6.13282 70.160319,69.493372 0 0 0 -4.49219,6.68945 70.160319,69.493372 0 0 0 -3.68164,7.16016 170.38935,168.76961 0 0 1 12.93359,-1.33008 170.38935,168.76961 0 0 1 13,-0.34961 170.38935,168.76961 0 0 1 12.98828,0.63281 170.38935,168.76961 0 0 1 12.90039,1.61328 170.38935,168.76961 0 0 1 12.74024,2.58203 170.38935,168.76961 0 0 1 12.5039,3.53711 170.38935,168.76961 0 0 1 12.19532,4.47266 170.38935,168.76961 0 0 1 11.81445,5.37891 170.38935,168.76961 0 0 1 11.36719,6.25781 170.38935,168.76961 0 0 1 10.85156,7.0957 170.38935,168.76961 0 0 1 10.27344,7.89649 70.160319,69.493372 0 0 0 0.57812,-4.92383 70.160319,69.493372 0 0 0 0.2207,-4.95313 70.160319,69.493372 0 0 0 -0.51171,-8.37695 70.160319,69.493372 0 0 0 -1.52735,-8.25391 70.160319,69.493372 0 0 0 -2.52148,-8.01172 70.160319,69.493372 0 0 0 -3.47657,-7.65234 70.160319,69.493372 0 0 0 -4.38281,-7.18164 70.160319,69.493372 0 0 0 -5.22461,-6.60547 70.160319,69.493372 0 0 0 -5.99218,-5.93359 70.160319,69.493372 0 0 0 -6.66797,-5.17578 70.160319,69.493372 0 0 0 -7.25,-4.3418 70.160319,69.493372 0 0 0 -7.72657,-3.44336 70.160319,69.493372 0 0 0 -8.08789,-2.49609 70.160319,69.493372 0 0 0 -8.33398,-1.51368 70.160319,69.493372 0 0 0 -8.45703,-0.50586 z"
         transform="scale(0.26458333)" />
      <path
         id="path572"
         style="fill:#ffffff;stroke-width:3.77953"
         d="m 394.01758,111.61523 a 70.160319,69.493372 0 0 1 8.45703,0.50586 70.160319,69.493372 0 0 1 8.33398,1.51368 70.160319,69.493372 0 0 1 8.08789,2.49609 70.160319,69.493372 0 0 1 7.72657,3.44336 70.160319,69.493372 0 0 1 7.25,4.3418 70.160319,69.493372 0 0 1 6.66797,5.17578 70.160319,69.493372 0 0 1 5.99218,5.93359 70.160319,69.493372 0 0 1 5.22461,6.60547 70.160319,69.493372 0 0 1 4.38281,7.18164 70.160319,69.493372 0 0 1 3.47657,7.65234 70.160319,69.493372 0 0 1 2.52148,8.01172 70.160319,69.493372 0 0 1 1.52735,8.25391 70.160319,69.493372 0 0 1 0.51171,8.37695 70.160319,69.493372 0 0 1 -0.2207,4.95313 70.160319,69.493372 0 0 1 -0.57812,4.92383 170.38935,168.76961 0 0 0 -10.27344,-7.89649 170.38935,168.76961 0 0 0 -10.85156,-7.0957 170.38935,168.76961 0 0 0 -11.36719,-6.25781 170.38935,168.76961 0 0 0 -11.81445,-5.37891 170.38935,168.76961 0 0 0 -12.19532,-4.47266 170.38935,168.76961 0 0 0 -12.5039,-3.53711 170.38935,168.76961 0 0 0 -12.74024,-2.58203 170.38935,168.76961 0 0 0 -12.90039,-1.61328 170.38935,168.76961 0 0 0 -12.98828,-0.63281 170.38935,168.76961 0 0 0 -13,0.34961 170.38935,168.76961 0 0 0 -12.93359,1.33008 70.160319,69.493372 0 0 1 3.68164,-7.16016 70.160319,69.493372 0 0 1 4.49219,-6.68945 70.160319,69.493372 0 0 1 5.24218,-6.13282 70.160319,69.493372 0 0 1 5.91992,-5.49218 70.160319,69.493372 0 0 1 6.52149,-4.77735 70.160319,69.493372 0 0 1 7.03515,-4.00195 70.160319,69.493372 0 0 1 7.45313,-3.16992 70.160319,69.493372 0 0 1 7.77344,-2.29688 70.160319,69.493372 0 0 1 7.99023,-1.39258 70.160319,69.493372 0 0 1 8.09766,-0.46875 z"
         transform="scale(0.26458333)" />
      <path
         id="path570"
         style="fill:#ffffff;stroke-width:3.77953"
         d="m 564.38086,176.32617 -158.16992,115.63477 45.84961,34.06445 -11.61328,8.50977 -21.02344,15.67382 -0.0391,0.0137 -14.25,10.44336 c -0.97405,-0.25815 -16.50312,-3.98944 -32.69141,-7.89454 -8.09415,-1.95254 -16.3523,-3.94839 -23.03906,-5.57617 -6.68676,-1.62777 -11.80202,-2.88657 -13.60742,-3.36523 l -31.86915,23.35156 91.125,67.57617 c 7.06105,-5.26873 14.13608,-10.52355 21.21875,-15.76758 7.08268,-5.24402 14.17211,-10.47808 21.26563,-15.70703 14.18703,-10.45789 28.38515,-20.89428 42.55078,-31.34961 7.08282,-5.22766 14.15747,-10.4597 21.21875,-15.70117 7.06128,-5.24146 14.10972,-10.49292 21.13867,-15.75781 7.02896,-5.26489 14.03956,-10.54385 21.02539,-15.8418 6.98584,-5.29794 13.94699,-10.61445 20.87891,-15.95508 z"
         transform="scale(0.26458333)" />
      <path
         id="path568"
         style="fill:#ffffff;stroke-width:3.77953"
         d="m 395.0625,48.324219 c -8.11396,5.549533 -16.02546,10.945977 -23.76367,16.210937 -7.73821,5.264961 -15.3032,10.398681 -22.72071,15.421875 -14.835,10.046389 -29.08439,19.652125 -42.96679,28.988279 -27.76481,18.67232 -54.06388,36.26629 -80.66016,54.15235 v 12.66406 l 42.38086,-27.67774 127.73047,-86.42773 169.31836,114.66992 0.004,-13.12109 C 549.10874,152.76907 534.72516,142.93578 520.7832,133.41602 506.84124,123.89626 493.34129,114.68936 479.83203,105.50391 466.32277,96.318457 452.80411,87.155728 438.82617,77.722656 424.84824,68.289584 410.41048,58.586846 395.0625,48.324219 Z"
         transform="scale(0.26458333)" />
    </g>
  </g>
</svg>
