<?xml version="1.0" encoding="UTF-8" standalone="no"?>
<!-- Generator: Adobe Illustrator 21.0.0, SVG Export Plug-In . SVG Version: 6.00 Build 0)  -->

<svg
   version="1.1"
   id="Layer_1"
   x="0px"
   y="0px"
   viewBox="0 0 851.52323 179.68268"
   xml:space="preserve"
   sodipodi:docname="BeatFellas Horizontal.svg"
   inkscape:version="1.2.2 (b0a8486541, 2022-12-01)"
   inkscape:export-filename="C:\Users\zonar\OneDrive\Ãrea de Trabalho\Logo_Beat_Fellas_Final.png"
   inkscape:export-xdpi="300"
   inkscape:export-ydpi="300"
   width="851.52325"
   height="179.68268"
   xmlns:inkscape="http://www.inkscape.org/namespaces/inkscape"
   xmlns:sodipodi="http://sodipodi.sourceforge.net/DTD/sodipodi-0.dtd"
   xmlns="http://www.w3.org/2000/svg"
   xmlns:svg="http://www.w3.org/2000/svg"
   xmlns:rdf="http://www.w3.org/1999/02/22-rdf-syntax-ns#"
   xmlns:cc="http://creativecommons.org/ns#"
   xmlns:dc="http://purl.org/dc/elements/1.1/"><metadata
     id="metadata82"><rdf:RDF><cc:Work
         rdf:about=""><dc:format>image/svg+xml</dc:format><dc:type
           rdf:resource="http://purl.org/dc/dcmitype/StillImage" /></cc:Work></rdf:RDF></metadata><defs
     id="defs80" /><sodipodi:namedview
     pagecolor="#ffffff"
     bordercolor="#666666"
     borderopacity="1"
     objecttolerance="10"
     gridtolerance="10"
     guidetolerance="10"
     inkscape:pageopacity="0"
     inkscape:pageshadow="2"
     inkscape:window-width="2560"
     inkscape:window-height="1009"
     id="namedview78"
     showgrid="false"
     showguides="true"
     inkscape:guide-bbox="true"
     inkscape:zoom="1.4466251"
     inkscape:cx="432.3857"
     inkscape:cy="42.858375"
     inkscape:window-x="1912"
     inkscape:window-y="-8"
     inkscape:window-maximized="1"
     inkscape:current-layer="Layer_1"
     fit-margin-top="0"
     fit-margin-left="0"
     fit-margin-right="0"
     fit-margin-bottom="0"
     inkscape:showpageshadow="2"
     inkscape:pagecheckerboard="0"
     inkscape:deskcolor="#d1d1d1" /><style
     type="text/css"
     id="style2">
	.st0{fill:#050505;}
	.st1{fill:#FFFFFF;}
</style><path
     style="opacity:1;vector-effect:none;fill:#ffffff;fill-opacity:1;fill-rule:nonzero;stroke:none;stroke-width:0.347863;stroke-linecap:butt;stroke-linejoin:miter;stroke-miterlimit:4;stroke-dasharray:none;stroke-dashoffset:0;stroke-opacity:1"
     d="M 64.832154,0 C 40.093354,17.10055 20.27246,30.42938 0,44.20808 l 1.6e-4,4.87858 16.15198,-10.66123 48.679644,-33.29038 64.529986,44.16894 0.002,-5.05415 C 106.07567,28.17091 88.229834,15.81183 64.832444,0 Z M 1.6e-4,49.08666 0.02536,72.81718 c 21.07352,15.82435 43.446774,32.82963 64.798844,48.65902 L 129.3634,72.81718 c 0.002,-8.06773 -0.003,-15.44525 -0.002,-23.51297 L 97.400244,73.12065 64.822554,49.29094 32.548144,73.10717 Z m 0.0252,31.02048 0.35372,51.27773 25.726434,19.28025 15.59721,-11.75901 c 8.9686,2.29307 18.20048,4.38018 25.99694,6.26208 l 10.29688,-7.61814 z m 129.34874,0.0339 -60.280886,44.53964 17.47346,13.12088 -4.42578,3.27819 -8.01205,6.03735 -0.0138,0.005 -5.43083,4.02191 c -0.74237,-0.19892 -23.67321,-5.74697 -26.4255,-6.48444 h -2.2e-4 l -12.14558,8.99474 34.72861,26.02837 c 21.52857,-16.23528 43.386996,-32.10603 64.521866,-48.56283 z"
     id="rect369"
     inkscape:connector-curvature="0"
     sodipodi:nodetypes="cccccccccccccccccccccccccccccccccccccc" /><g
     id="g628"
     transform="matrix(0.93167748,0,0,0.93167748,-15.241803,13.486933)"><g
       id="g566"
       transform="matrix(0.89670662,0,0,0.89670662,15.25487,106.63259)"
       style="font-size:112.593px;font-family:Poppings;-inkscape-font-specification:Poppings;fill:#ffffff;stroke-width:1.17284"><g
         id="g490"
         transform="translate(-0.69126411,-112.67605)"><path
           d="m 216.8043,49.291299 q 5.57576,1.259042 8.81329,5.575756 3.32747,4.226783 3.32747,9.712608 0,8.09384 -5.57576,12.680349 -5.57576,4.58651 -15.64809,4.58651 H 176.3351 V 18.444777 h 30.39686 q 9.71261,0 15.19844,4.316714 5.57575,4.316715 5.57575,12.14076 0,5.575756 -2.96774,9.352881 -2.87781,3.687194 -7.73411,5.036167 z m -22.84261,-5.665687 h 8.90322 q 6.65493,0 6.65493,-5.485825 0,-5.665688 -6.65493,-5.665688 h -8.90322 z m 10.25219,24.011725 q 6.65493,0 6.65493,-5.575757 0,-2.87781 -1.79863,-4.406646 -1.70869,-1.528837 -4.94623,-1.528837 h -10.16226 v 11.51124 z"
           style="font-family:'Poppins ExtraBold';-inkscape-font-specification:'Poppins ExtraBold, ';stroke-width:0.936784"
           id="path459" /><path
           d="m 286.55171,34.125702 v 10.342129 h 20.23459 v 13.399801 h -20.23459 v 11.421307 h 22.93254 V 83.408193 H 268.92512 V 20.006448 h 40.55913 v 14.119254 z"
           style="font-family:'Poppins ExtraBold';-inkscape-font-specification:'Poppins ExtraBold, ';stroke-width:0.936784"
           id="path461" /><path
           d="M 393.89049,71.504393 H 371.4076 l -3.41739,10.342129 h -18.5259 l 23.1124,-63.401745 h 20.32454 l 23.02247,63.401745 h -18.61583 z m -4.40664,-13.489733 -6.8348,-20.504394 -6.74487,20.504394 z"
           style="font-family:'Poppins ExtraBold';-inkscape-font-specification:'Poppins ExtraBold, ';stroke-width:0.936784"
           id="path463" /><path
           d="M 507.16476,18.444777 V 32.474099 H 490.25762 V 81.846522 H 472.63104 V 32.474099 H 455.90377 V 18.444777 Z"
           style="font-family:'Poppins ExtraBold';-inkscape-font-specification:'Poppins ExtraBold, ';stroke-width:0.936784"
           id="path465" /><path
           d="M 590.13209,18.444777 V 32.474099 H 564.7714 v 11.151513 h 18.70576 V 57.025413 H 564.7714 V 81.846522 H 547.14482 V 18.444777 Z"
           style="font-family:'Poppins ExtraBold';-inkscape-font-specification:'Poppins ExtraBold, ';stroke-width:0.936784"
           id="path467" /><path
           d="m 647.73874,32.564031 v 10.342128 h 20.2346 V 56.30596 h -20.2346 v 11.421308 h 22.93255 V 81.846522 H 630.11215 V 18.444777 h 40.55914 v 14.119254 z"
           style="font-family:'Poppins ExtraBold';-inkscape-font-specification:'Poppins ExtraBold, ';stroke-width:0.936784"
           id="path469" /><path
           d="m 728.27793,68.356789 h 19.69501 V 81.846522 H 710.65135 V 18.444777 h 17.62658 z"
           style="font-family:'Poppins ExtraBold';-inkscape-font-specification:'Poppins ExtraBold, ';stroke-width:0.936784"
           id="path471" /><path
           d="m 805.57958,68.356789 h 19.69501 v 13.489733 h -37.3216 V 18.444777 h 17.62659 z"
           style="font-family:'Poppins ExtraBold';-inkscape-font-specification:'Poppins ExtraBold, ';stroke-width:0.936784"
           id="path473" /><path
           d="m 909.68083,71.504393 h -22.48288 l -3.4174,10.342129 h -18.5259 l 23.11241,-63.401745 h 20.32453 l 23.02248,63.401745 h -18.61583 z m -4.40664,-13.489733 -6.8348,-20.504394 -6.74487,20.504394 z"
           style="font-family:'Poppins ExtraBold';-inkscape-font-specification:'Poppins ExtraBold, ';stroke-width:0.936784"
           id="path475" /><path
           d="m 997.50448,82.476042 q -11.06158,0 -18.16617,-5.21603 -7.10459,-5.305961 -7.64418,-15.108501 h 18.79569 q 0.26978,3.327468 1.9785,4.856305 1.70873,1.528836 4.4066,1.528836 2.42822,0 3.95698,-1.16911 1.6188,-1.259042 1.6188,-3.4174 0,-2.787878 -2.60801,-4.316714 -2.60802,-1.528837 -8.45353,-3.417399 -6.2053,-2.068426 -10.07236,-3.956989 -3.77712,-1.978494 -6.65493,-5.665687 -2.78788,-3.777125 -2.78788,-9.802539 0,-6.115346 3.05768,-10.432061 3.05767,-4.406646 8.45356,-6.654935 5.39589,-2.248288 12.23065,-2.248288 11.06162,0 17.62662,5.21603 6.655,5.126099 7.1046,14.47898 h -19.1554 q -0.09,-2.87781 -1.79862,-4.316715 -1.61879,-1.438904 -4.2268,-1.438904 -1.97854,0 -3.23758,1.16911 -1.25904,1.16911 -1.25904,3.327467 0,1.798631 1.34898,3.147604 1.43891,1.259042 3.50738,2.248289 2.0684,0.899316 6.11538,2.338221 6.0253,2.068425 9.8924,4.136851 3.957,1.978494 6.7449,5.665688 2.8778,3.597262 2.8778,9.173018 0,5.665688 -2.8778,10.162266 -2.7879,4.496577 -8.1838,7.104592 -5.306,2.608015 -12.59042,2.608015 z"
           style="font-family:'Poppins ExtraBold';-inkscape-font-specification:'Poppins ExtraBold, ';stroke-width:0.936784"
           id="path477" /></g></g><g
       id="g553"
       transform="matrix(0.61626806,0,0,0.61626806,93.50953,-56.152345)"
       style="font-size:112.593px;font-family:Poppings;-inkscape-font-specification:Poppings;fill:#ffffff;stroke-width:1.17284"><rect
         style="fill:#ffffff;stroke-width:1.1295"
         id="rect548"
         width="1228.837"
         height="91.893944"
         x="129.04256"
         y="230.71243" /><text
         xml:space="preserve"
         style="font-style:normal;font-variant:normal;font-weight:normal;font-stretch:normal;font-size:96px;font-family:'Poppins ExtraBold';-inkscape-font-specification:'Poppins ExtraBold, ';fill:#000000"
         x="135.3493"
         y="310.69141"
         id="text494"><tspan
           sodipodi:role="line"
           id="tspan492"
           x="135.3493"
           y="310.69141">BEATBOX NACIONAL - BR</tspan></text></g></g></svg>
