<?xml version="1.0" encoding="UTF-8" standalone="no"?>
<svg
   xmlns:dc="http://purl.org/dc/elements/1.1/"
   xmlns:cc="http://creativecommons.org/ns#"
   xmlns:rdf="http://www.w3.org/1999/02/22-rdf-syntax-ns#"
   xmlns:svg="http://www.w3.org/2000/svg"
   xmlns="http://www.w3.org/2000/svg"
   xmlns:sodipodi="http://sodipodi.sourceforge.net/DTD/sodipodi-0.dtd"
   xmlns:inkscape="http://www.inkscape.org/namespaces/inkscape"
   height="179.68268"
   width="129.3741"
   inkscape:export-ydpi="300"
   inkscape:export-xdpi="300"
   inkscape:export-filename="C:\Users\zonar\OneDrive\Área de Trabalho\Logo_Beat_Fellas_Final.png"
   inkscape:version="1.0 (4035a4fb49, 2020-05-01)"
   sodipodi:docname="BeatFellas (Só Caixa).svg"
   xml:space="preserve"
   viewBox="0 0 129.3741 179.68268"
   y="0px"
   x="0px"
   id="Layer_1"
   version="1.1"><metadata
     id="metadata82"><rdf:RDF><cc:Work
         rdf:about=""><dc:format>image/svg+xml</dc:format><dc:type
           rdf:resource="http://purl.org/dc/dcmitype/StillImage" /><dc:title></dc:title></cc:Work></rdf:RDF></metadata><defs
     id="defs80" /><sodipodi:namedview
     inkscape:pagecheckerboard="true"
     inkscape:document-rotation="0"
     fit-margin-bottom="0"
     fit-margin-right="0"
     fit-margin-left="0"
     fit-margin-top="0"
     inkscape:current-layer="Layer_1"
     inkscape:window-maximized="1"
     inkscape:window-y="-8"
     inkscape:window-x="-8"
     inkscape:cy="270.13262"
     inkscape:cx="398.5736"
     inkscape:zoom="0.72331254"
     inkscape:guide-bbox="true"
     showguides="true"
     showgrid="false"
     id="namedview78"
     inkscape:window-height="1017"
     inkscape:window-width="2560"
     inkscape:pageshadow="2"
     inkscape:pageopacity="0"
     guidetolerance="10"
     gridtolerance="10"
     objecttolerance="10"
     borderopacity="1"
     bordercolor="#666666"
     pagecolor="#ffffff" /><style
     id="style2"
     type="text/css">
	.st0{fill:#050505;}
	.st1{fill:#FFFFFF;}
</style><path
     sodipodi:nodetypes="cccccccccccccccccccccccccccccccccccccc"
     inkscape:connector-curvature="0"
     id="rect369"
     d="M 64.832154,0 C 40.093354,17.10055 20.27246,30.42938 0,44.20808 l 1.6e-4,4.87858 16.15198,-10.66123 48.679644,-33.29038 64.529986,44.16894 0.002,-5.05415 C 106.07567,28.17091 88.229834,15.81183 64.832444,0 Z M 1.6e-4,49.08666 0.02536,72.81718 c 21.07352,15.82435 43.446774,32.82963 64.798844,48.65902 L 129.3634,72.81718 c 0.002,-8.06773 -0.003,-15.44525 -0.002,-23.51297 L 97.400244,73.12065 64.822554,49.29094 32.548144,73.10717 Z m 0.0252,31.02048 0.35372,51.27773 25.726434,19.28025 15.59721,-11.75901 c 8.9686,2.29307 18.20048,4.38018 25.99694,6.26208 l 10.29688,-7.61814 z m 129.34874,0.0339 -60.280886,44.53964 17.47346,13.12088 -4.42578,3.27819 -8.01205,6.03735 -0.0138,0.005 -5.43083,4.02191 c -0.74237,-0.19892 -23.67321,-5.74697 -26.4255,-6.48444 h -2.2e-4 l -12.14558,8.99474 34.72861,26.02837 c 21.52857,-16.23528 43.386996,-32.10603 64.521866,-48.56283 z"
     style="opacity:1;vector-effect:none;fill:#ffffff;fill-opacity:1;fill-rule:nonzero;stroke:none;stroke-width:0.347863;stroke-linecap:butt;stroke-linejoin:miter;stroke-miterlimit:4;stroke-dasharray:none;stroke-dashoffset:0;stroke-opacity:1" /></svg>
