<?xml version="1.0" encoding="UTF-8" standalone="no"?>
<!-- Generator: Adobe Illustrator 21.0.0, SVG Export Plug-In . SVG Version: 6.00 Build 0)  -->

<svg
   version="1.1"
   id="Layer_1"
   x="0px"
   y="0px"
   viewBox="0 0 869.86102 544.08118"
   xml:space="preserve"
   sodipodi:docname="BeatFellas Vertical.svg"
   inkscape:version="1.2.2 (b0a8486541, 2022-12-01)"
   inkscape:export-filename="C:\Users\zonar\OneDrive\Ãrea de Trabalho\Logo_Beat_Fellas_Final.png"
   inkscape:export-xdpi="300"
   inkscape:export-ydpi="300"
   width="869.86102"
   height="544.08118"
   xmlns:inkscape="http://www.inkscape.org/namespaces/inkscape"
   xmlns:sodipodi="http://sodipodi.sourceforge.net/DTD/sodipodi-0.dtd"
   xmlns="http://www.w3.org/2000/svg"
   xmlns:svg="http://www.w3.org/2000/svg"
   xmlns:rdf="http://www.w3.org/1999/02/22-rdf-syntax-ns#"
   xmlns:cc="http://creativecommons.org/ns#"
   xmlns:dc="http://purl.org/dc/elements/1.1/"><metadata
     id="metadata82"><rdf:RDF><cc:Work
         rdf:about=""><dc:format>image/svg+xml</dc:format><dc:type
           rdf:resource="http://purl.org/dc/dcmitype/StillImage" /></cc:Work></rdf:RDF></metadata><defs
     id="defs80" /><sodipodi:namedview
     pagecolor="#ffffff"
     bordercolor="#666666"
     borderopacity="1"
     objecttolerance="10"
     gridtolerance="10"
     guidetolerance="10"
     inkscape:pageopacity="0"
     inkscape:pageshadow="2"
     inkscape:window-width="2560"
     inkscape:window-height="1009"
     id="namedview78"
     showgrid="false"
     showguides="true"
     inkscape:guide-bbox="true"
     inkscape:zoom="0.70710678"
     inkscape:cx="271.529"
     inkscape:cy="277.18586"
     inkscape:window-x="1912"
     inkscape:window-y="-8"
     inkscape:window-maximized="1"
     inkscape:current-layer="Layer_1"
     fit-margin-top="0"
     fit-margin-left="0"
     fit-margin-right="0"
     fit-margin-bottom="0"
     inkscape:showpageshadow="2"
     inkscape:pagecheckerboard="0"
     inkscape:deskcolor="#d1d1d1" /><style
     type="text/css"
     id="style2">
	.st0{fill:#050505;}
	.st1{fill:#FFFFFF;}
</style><path
     style="opacity:1;vector-effect:none;fill:#ffffff;fill-opacity:1;fill-rule:nonzero;stroke:none;stroke-width:0.724071;stroke-linecap:butt;stroke-linejoin:miter;stroke-miterlimit:4;stroke-dasharray:none;stroke-dashoffset:0;stroke-opacity:1"
     d="m 434.71424,0 c -51.4933,35.59442 -92.75007,63.33812 -134.94679,92.0182 l 3.3e-4,10.15466 33.62001,-22.19113 101.32568,-69.29323 134.31786,91.93673 0.003,-10.5201 C 520.5612,58.63716 483.41545,32.91199 434.71425,0 Z m -134.94646,102.17286 0.0524,49.39458 c 43.86409,32.93806 90.43355,68.33422 134.87745,101.28276 L 569.03464,151.56744 c 0.004,-16.79281 -0.005,-32.14895 -0.003,-48.94175 l -66.52649,49.57344 -67.80977,-49.60107 -67.17852,49.573 z m 0.0524,64.5685 0.73626,106.73353 53.54904,40.13145 32.46527,-24.47615 c 18.66796,4.773 37.88391,9.11727 54.11209,13.0344 l 21.43275,-15.857 z m 269.23674,0.0705 -125.47344,92.70835 36.37065,27.31084 -9.21217,6.82348 -16.67691,12.56661 -0.0287,0.0101 -11.30415,8.37153 c -1.54526,-0.41405 -49.27532,-11.9622 -55.00416,-13.49723 h -4.5e-4 l -25.28076,18.72235 72.28688,54.17753 c 44.81128,-33.7934 90.30915,-66.82804 134.30094,-101.08253 z"
     id="rect369"
     inkscape:connector-curvature="0"
     sodipodi:nodetypes="cccccccccccccccccccccccccccccccccccccc" /><g
     id="g834"
     transform="matrix(1.0789356,0,0,1.0789356,-37.318622,-4.264297)"><g
       id="g628"
       transform="matrix(1.0642183,0,0,1.0642183,-149.26158,356.40717)"><g
         id="g566"
         transform="matrix(0.89670662,0,0,0.89670662,15.25487,106.63259)"
         style="font-size:112.593px;font-family:Poppings;-inkscape-font-specification:Poppings;fill:#ffffff;stroke-width:1.17284"><g
           id="g490"
           transform="translate(-0.69126411,-112.67605)"><path
             d="m 216.8043,49.291299 q 5.57576,1.259042 8.81329,5.575756 3.32747,4.226783 3.32747,9.712608 0,8.09384 -5.57576,12.680349 -5.57576,4.58651 -15.64809,4.58651 H 176.3351 V 18.444777 h 30.39686 q 9.71261,0 15.19844,4.316714 5.57575,4.316715 5.57575,12.14076 0,5.575756 -2.96774,9.352881 -2.87781,3.687194 -7.73411,5.036167 z m -22.84261,-5.665687 h 8.90322 q 6.65493,0 6.65493,-5.485825 0,-5.665688 -6.65493,-5.665688 h -8.90322 z m 10.25219,24.011725 q 6.65493,0 6.65493,-5.575757 0,-2.87781 -1.79863,-4.406646 -1.70869,-1.528837 -4.94623,-1.528837 h -10.16226 v 11.51124 z"
             style="font-family:'Poppins ExtraBold';-inkscape-font-specification:'Poppins ExtraBold, ';stroke-width:0.936784"
             id="path459" /><path
             d="m 286.55171,34.125702 v 10.342129 h 20.23459 v 13.399801 h -20.23459 v 11.421307 h 22.93254 V 83.408193 H 268.92512 V 20.006448 h 40.55913 v 14.119254 z"
             style="font-family:'Poppins ExtraBold';-inkscape-font-specification:'Poppins ExtraBold, ';stroke-width:0.936784"
             id="path461" /><path
             d="M 393.89049,71.504393 H 371.4076 l -3.41739,10.342129 h -18.5259 l 23.1124,-63.401745 h 20.32454 l 23.02247,63.401745 h -18.61583 z m -4.40664,-13.489733 -6.8348,-20.504394 -6.74487,20.504394 z"
             style="font-family:'Poppins ExtraBold';-inkscape-font-specification:'Poppins ExtraBold, ';stroke-width:0.936784"
             id="path463" /><path
             d="M 507.16476,18.444777 V 32.474099 H 490.25762 V 81.846522 H 472.63104 V 32.474099 H 455.90377 V 18.444777 Z"
             style="font-family:'Poppins ExtraBold';-inkscape-font-specification:'Poppins ExtraBold, ';stroke-width:0.936784"
             id="path465" /><path
             d="M 590.13209,18.444777 V 32.474099 H 564.7714 v 11.151513 h 18.70576 V 57.025413 H 564.7714 V 81.846522 H 547.14482 V 18.444777 Z"
             style="font-family:'Poppins ExtraBold';-inkscape-font-specification:'Poppins ExtraBold, ';stroke-width:0.936784"
             id="path467" /><path
             d="m 647.73874,32.564031 v 10.342128 h 20.2346 V 56.30596 h -20.2346 v 11.421308 h 22.93255 V 81.846522 H 630.11215 V 18.444777 h 40.55914 v 14.119254 z"
             style="font-family:'Poppins ExtraBold';-inkscape-font-specification:'Poppins ExtraBold, ';stroke-width:0.936784"
             id="path469" /><path
             d="m 728.27793,68.356789 h 19.69501 V 81.846522 H 710.65135 V 18.444777 h 17.62658 z"
             style="font-family:'Poppins ExtraBold';-inkscape-font-specification:'Poppins ExtraBold, ';stroke-width:0.936784"
             id="path471" /><path
             d="m 805.57958,68.356789 h 19.69501 v 13.489733 h -37.3216 V 18.444777 h 17.62659 z"
             style="font-family:'Poppins ExtraBold';-inkscape-font-specification:'Poppins ExtraBold, ';stroke-width:0.936784"
             id="path473" /><path
             d="m 909.68083,71.504393 h -22.48288 l -3.4174,10.342129 h -18.5259 l 23.11241,-63.401745 h 20.32453 l 23.02248,63.401745 h -18.61583 z m -4.40664,-13.489733 -6.8348,-20.504394 -6.74487,20.504394 z"
             style="font-family:'Poppins ExtraBold';-inkscape-font-specification:'Poppins ExtraBold, ';stroke-width:0.936784"
             id="path475" /><path
             d="m 997.50448,82.476042 q -11.06158,0 -18.16617,-5.21603 -7.10459,-5.305961 -7.64418,-15.108501 h 18.79569 q 0.26978,3.327468 1.9785,4.856305 1.70873,1.528836 4.4066,1.528836 2.42822,0 3.95698,-1.16911 1.6188,-1.259042 1.6188,-3.4174 0,-2.787878 -2.60801,-4.316714 -2.60802,-1.528837 -8.45353,-3.417399 -6.2053,-2.068426 -10.07236,-3.956989 -3.77712,-1.978494 -6.65493,-5.665687 -2.78788,-3.777125 -2.78788,-9.802539 0,-6.115346 3.05768,-10.432061 3.05767,-4.406646 8.45356,-6.654935 5.39589,-2.248288 12.23065,-2.248288 11.06162,0 17.62662,5.21603 6.655,5.126099 7.1046,14.47898 h -19.1554 q -0.09,-2.87781 -1.79862,-4.316715 -1.61879,-1.438904 -4.2268,-1.438904 -1.97854,0 -3.23758,1.16911 -1.25904,1.16911 -1.25904,3.327467 0,1.798631 1.34898,3.147604 1.43891,1.259042 3.50738,2.248289 2.0684,0.899316 6.11538,2.338221 6.0253,2.068425 9.8924,4.136851 3.957,1.978494 6.7449,5.665688 2.8778,3.597262 2.8778,9.173018 0,5.665688 -2.8778,10.162266 -2.7879,4.496577 -8.1838,7.104592 -5.306,2.608015 -12.59042,2.608015 z"
             style="font-family:'Poppins ExtraBold';-inkscape-font-specification:'Poppins ExtraBold, ';stroke-width:0.936784"
             id="path477" /></g></g><g
         id="g553"
         transform="matrix(0.61626806,0,0,0.61626806,93.50953,-56.152345)"
         style="font-size:112.593px;font-family:Poppings;-inkscape-font-specification:Poppings;fill:#ffffff;stroke-width:1.17284"><rect
           style="fill:#ffffff;stroke-width:1.1295"
           id="rect548"
           width="1228.837"
           height="91.893944"
           x="129.04256"
           y="230.71243" /><text
           xml:space="preserve"
           style="font-style:normal;font-variant:normal;font-weight:normal;font-stretch:normal;font-size:96px;font-family:'Poppins ExtraBold';-inkscape-font-specification:'Poppins ExtraBold, ';fill:#000000"
           x="135.3493"
           y="310.69141"
           id="text494"><tspan
             sodipodi:role="line"
             id="tspan492"
             x="135.3493"
             y="310.69141">BEATBOX NACIONAL - BR</tspan></text></g></g></g></svg>
