<?xml version="1.0" encoding="UTF-8" standalone="no"?>
<!-- Generator: Adobe Illustrator 21.0.0, SVG Export Plug-In . SVG Version: 6.00 Build 0)  -->

<svg
   xmlns:dc="http://purl.org/dc/elements/1.1/"
   xmlns:cc="http://creativecommons.org/ns#"
   xmlns:rdf="http://www.w3.org/1999/02/22-rdf-syntax-ns#"
   xmlns:svg="http://www.w3.org/2000/svg"
   xmlns="http://www.w3.org/2000/svg"
   xmlns:sodipodi="http://sodipodi.sourceforge.net/DTD/sodipodi-0.dtd"
   xmlns:inkscape="http://www.inkscape.org/namespaces/inkscape"
   version="1.1"
   id="Layer_1"
   x="0px"
   y="0px"
   viewBox="0 0 873 522.22797"
   xml:space="preserve"
   sodipodi:docname="BeatFellas Vertical.svg"
   inkscape:version="0.92.4 (5da689c313, 2019-01-14)"
   inkscape:export-filename="C:\Users\zonar\OneDrive\Ãrea de Trabalho\Logo_Beat_Fellas_Final.png"
   inkscape:export-xdpi="300"
   inkscape:export-ydpi="300"
   width="873"
   height="522.22797"><metadata
     id="metadata82"><rdf:RDF><cc:Work
         rdf:about=""><dc:format>image/svg+xml</dc:format><dc:type
           rdf:resource="http://purl.org/dc/dcmitype/StillImage" /><dc:title></dc:title></cc:Work></rdf:RDF></metadata><defs
     id="defs80" /><sodipodi:namedview
     pagecolor="#ffffff"
     bordercolor="#666666"
     borderopacity="1"
     objecttolerance="10"
     gridtolerance="10"
     guidetolerance="10"
     inkscape:pageopacity="0"
     inkscape:pageshadow="2"
     inkscape:window-width="1366"
     inkscape:window-height="705"
     id="namedview78"
     showgrid="false"
     showguides="true"
     inkscape:guide-bbox="true"
     inkscape:zoom="0.5"
     inkscape:cx="31.565781"
     inkscape:cy="171.36987"
     inkscape:window-x="-8"
     inkscape:window-y="-8"
     inkscape:window-maximized="1"
     inkscape:current-layer="Layer_1"
     fit-margin-top="0"
     fit-margin-left="0"
     fit-margin-right="0"
     fit-margin-bottom="0" /><style
     type="text/css"
     id="style2">
	.st0{fill:#050505;}
	.st1{fill:#FFFFFF;}
</style><g
     id="g133"
     transform="translate(-234,-147.37208)"><g
       id="BeatFellas"><path
         style="fill:#ffffff"
         inkscape:connector-curvature="0"
         class="st1"
         d="m 286.8,612 c 0,1.1 -0.2,2.2 -0.7,3.1 -0.5,0.9 -1.1,1.8 -1.9,2.4 -0.8,0.7 -1.7,1.2 -2.8,1.5 -1,0.4 -2.2,0.5 -3.4,0.5 H 263.9 V 590 h 14.7 c 1,0 2,0.2 2.8,0.7 0.8,0.4 1.5,1 2.1,1.7 0.6,0.7 1,1.5 1.4,2.4 0.3,0.9 0.5,1.8 0.5,2.7 0,1.5 -0.4,2.8 -1.1,4.1 -0.7,1.3 -1.8,2.2 -3.2,2.8 1.7,0.5 3,1.4 4,2.8 1.2,1.3 1.7,2.9 1.7,4.8 z m -19,-18.8 v 9.9 h 9.4 c 0.7,0 1.3,-0.1 1.8,-0.4 0.6,-0.3 1,-0.6 1.4,-1.1 0.4,-0.5 0.7,-1 1,-1.6 0.2,-0.6 0.4,-1.2 0.4,-1.9 0,-0.7 -0.1,-1.3 -0.3,-2 -0.2,-0.6 -0.5,-1.1 -0.9,-1.6 -0.4,-0.4 -0.8,-0.8 -1.4,-1 -0.5,-0.3 -1.1,-0.4 -1.7,-0.4 z m 15.2,18.1 c 0,-0.7 -0.1,-1.3 -0.4,-1.9 -0.2,-0.6 -0.6,-1.2 -1,-1.6 -0.4,-0.5 -0.9,-0.8 -1.4,-1.1 -0.6,-0.3 -1.2,-0.4 -1.8,-0.4 h -10.6 v 10.2 h 10.3 c 0.7,0 1.3,-0.1 1.9,-0.4 0.6,-0.3 1.1,-0.6 1.5,-1.1 0.4,-0.5 0.8,-1 1,-1.6 0.4,-0.8 0.5,-1.4 0.5,-2.1 z"
         id="path7" /><path
         style="fill:#ffffff"
         inkscape:connector-curvature="0"
         class="st1"
         d="m 374.7,616.3 v 3.3 H 354.6 V 590 h 19.7 v 3.3 h -16 v 9.6 h 13.9 v 3.1 h -13.9 v 10.2 h 16.4 z"
         id="path9" /><path
         style="fill:#ffffff"
         inkscape:connector-curvature="0"
         class="st1"
         d="m 451.3,590 h 3.2 l 12.1,29.6 h -4 l -3.5,-8.7 h -12.4 l -3.5,8.7 h -4 z m 6.9,18 -5.3,-13.7 -5.5,13.7 z"
         id="path11" /><path
         style="fill:#ffffff"
         inkscape:connector-curvature="0"
         class="st1"
         d="m 551.6,593.3 h -10.2 v 26.3 h -3.8 V 593.3 H 527.4 V 590 h 24.2 z"
         id="path13" /><path
         style="fill:#ffffff"
         inkscape:connector-curvature="0"
         class="st1"
         d="M 618.3,619.6 V 590 h 19.6 v 3.3 h -15.8 v 9.9 h 13.3 v 3.1 h -13.3 v 13.3 z"
         id="path15" /><path
         style="fill:#ffffff"
         inkscape:connector-curvature="0"
         class="st1"
         d="m 725.2,616.3 v 3.3 H 705.1 V 590 h 19.7 v 3.3 h -16 v 9.6 h 13.9 v 3.1 h -13.9 v 10.2 h 16.4 z"
         id="path17" /><path
         style="fill:#ffffff"
         inkscape:connector-curvature="0"
         class="st1"
         d="M 792.8,619.6 V 590 h 3.8 v 26.3 h 16.5 v 3.3 z"
         id="path19" /><path
         style="fill:#ffffff"
         inkscape:connector-curvature="0"
         class="st1"
         d="M 879.7,619.6 V 590 h 3.8 v 26.3 H 900 v 3.3 z"
         id="path21" /><path
         style="fill:#ffffff"
         inkscape:connector-curvature="0"
         class="st1"
         d="m 975.5,590 h 3.2 l 12.1,29.6 h -4 l -3.5,-8.7 h -12.4 l -3.5,8.7 h -4 z m 7,18 -5.3,-13.7 -5.5,13.7 z"
         id="path23" /><path
         style="fill:#ffffff"
         inkscape:connector-curvature="0"
         class="st1"
         d="m 1074.2,596.2 c -0.3,-0.4 -0.8,-0.8 -1.3,-1.1 -0.6,-0.4 -1.2,-0.7 -1.9,-1 -0.7,-0.3 -1.5,-0.5 -2.3,-0.7 -0.8,-0.2 -1.7,-0.3 -2.6,-0.3 -2.3,0 -4,0.4 -5.1,1.3 -1.1,0.9 -1.6,2 -1.6,3.5 0,0.8 0.2,1.5 0.5,2 0.3,0.5 0.8,1 1.4,1.4 0.7,0.4 1.5,0.7 2.4,1 1,0.3 2.1,0.6 3.5,0.9 1.5,0.3 2.9,0.7 4.2,1.1 1.2,0.4 2.3,1 3.2,1.6 0.9,0.6 1.5,1.4 2,2.3 0.5,0.9 0.7,2 0.7,3.4 0,1.4 -0.3,2.7 -0.8,3.7 -0.6,1 -1.3,1.9 -2.3,2.6 -1,0.7 -2.1,1.2 -3.4,1.5 -1.3,0.3 -2.7,0.5 -4.3,0.5 -2.3,0 -4.4,-0.4 -6.5,-1.1 -2,-0.7 -3.9,-1.7 -5.6,-3.1 l 1.8,-3.2 c 0.4,0.5 1,0.9 1.7,1.4 0.7,0.5 1.5,0.9 2.4,1.3 0.9,0.4 1.9,0.7 2.9,0.9 1,0.2 2.1,0.4 3.3,0.4 2.1,0 3.8,-0.4 4.9,-1.1 1.2,-0.8 1.8,-1.9 1.8,-3.4 0,-0.8 -0.2,-1.5 -0.6,-2.1 -0.4,-0.6 -0.9,-1.1 -1.6,-1.5 -0.7,-0.4 -1.6,-0.8 -2.7,-1.1 -1.1,-0.3 -2.3,-0.6 -3.7,-1 -1.5,-0.4 -2.8,-0.8 -4,-1.2 -1.1,-0.4 -2.1,-0.9 -2.9,-1.5 -0.8,-0.6 -1.3,-1.3 -1.7,-2.1 -0.4,-0.8 -0.6,-1.8 -0.6,-3 0,-1.4 0.3,-2.7 0.8,-3.8 0.5,-1.1 1.3,-2 2.2,-2.8 0.9,-0.8 2.1,-1.3 3.4,-1.7 1.3,-0.4 2.7,-0.6 4.3,-0.6 2,0 3.8,0.3 5.4,0.9 1.6,0.6 3,1.4 4.3,2.5 z"
         id="path25" /></g><rect
       style="fill:#ffffff"
       x="234"
       y="628.40002"
       class="st1"
       width="873"
       height="41.200001"
       id="rect29" /><path
       inkscape:connector-curvature="0"
       d="m 278.7,652.8 c 0,0.7 -0.1,1.4 -0.4,2 -0.3,0.6 -0.6,1.2 -1.2,1.6 -0.5,0.4 -1.1,0.7 -1.7,1.1 -0.6,0.2 -1.4,0.3 -2,0.3 h -9 v -19 h 9.1 c 0.6,0 1.3,0.1 1.8,0.4 0.5,0.3 1,0.6 1.4,1.1 0.4,0.4 0.6,1 0.8,1.6 0.2,0.5 0.3,1.2 0.3,1.8 0,1 -0.2,1.8 -0.7,2.7 -0.5,0.8 -1.2,1.4 -2,1.8 1.1,0.3 1.9,1 2.5,1.8 0.8,0.7 1.1,1.7 1.1,2.8 z m -12.4,-12.4 v 7 h 6.6 c 0.4,0 0.8,-0.1 1.3,-0.3 0.4,-0.2 0.7,-0.4 1.1,-0.7 0.3,-0.3 0.5,-0.7 0.6,-1.1 0.2,-0.4 0.2,-0.8 0.2,-1.4 0,-0.5 -0.1,-1 -0.2,-1.4 -0.1,-0.4 -0.3,-0.8 -0.6,-1.1 -0.3,-0.3 -0.6,-0.5 -1,-0.7 -0.4,-0.2 -0.7,-0.3 -1.3,-0.3 z m 10.5,12.1 c 0,-0.4 -0.1,-1 -0.2,-1.4 -0.2,-0.4 -0.4,-0.8 -0.6,-1.2 -0.2,-0.3 -0.6,-0.6 -1.1,-0.8 -0.4,-0.2 -0.8,-0.3 -1.3,-0.3 h -7.3 v 7.2 h 7.1 c 0.5,0 1,-0.1 1.4,-0.3 0.4,-0.2 0.7,-0.4 1.1,-0.7 0.3,-0.3 0.5,-0.7 0.7,-1.2 0.2,-0.4 0.2,-0.8 0.2,-1.3 z"
       id="path31" /><path
       inkscape:connector-curvature="0"
       d="m 319.6,656.1 v 1.7 h -12.7 v -19 h 12.5 v 1.7 h -10.7 v 6.9 h 9.3 v 1.6 h -9.3 v 7.2 h 10.9 z"
       id="path33" /><path
       inkscape:connector-curvature="0"
       d="m 353.6,638.7 h 1.6 l 8,19 h -2 l -2.4,-5.9 h -8.6 l -2.4,5.9 h -2 z m 4.6,11.7 -3.8,-9.5 -3.9,9.5 z"
       id="path35" /><path
       inkscape:connector-curvature="0"
       d="m 402,640.4 h -6.8 v 17.4 h -1.9 v -17.4 h -6.8 v -1.7 h 15.4 v 1.7 z"
       id="path37" /><path
       inkscape:connector-curvature="0"
       d="m 443.7,652.8 c 0,0.7 -0.1,1.4 -0.4,2 -0.3,0.6 -0.6,1.2 -1.2,1.6 -0.5,0.4 -1.1,0.7 -1.7,1.1 -0.6,0.2 -1.4,0.3 -2,0.3 h -9 v -19 h 9.1 c 0.6,0 1.3,0.1 1.8,0.4 0.5,0.3 1,0.6 1.4,1.1 0.4,0.4 0.6,1 0.8,1.6 0.2,0.5 0.3,1.2 0.3,1.8 0,1 -0.2,1.8 -0.7,2.7 -0.5,0.8 -1.2,1.4 -2,1.8 1.1,0.3 1.9,1 2.5,1.8 0.8,0.7 1.1,1.7 1.1,2.8 z m -12.4,-12.4 v 7 h 6.6 c 0.4,0 0.8,-0.1 1.3,-0.3 0.4,-0.2 0.7,-0.4 1.1,-0.7 0.3,-0.3 0.5,-0.7 0.6,-1.1 0.2,-0.4 0.2,-0.8 0.2,-1.4 0,-0.5 -0.1,-1 -0.2,-1.4 -0.1,-0.4 -0.3,-0.8 -0.6,-1.1 -0.3,-0.3 -0.6,-0.5 -1,-0.7 -0.4,-0.2 -0.7,-0.3 -1.3,-0.3 z m 10.5,12.1 c 0,-0.4 -0.1,-1 -0.2,-1.4 -0.2,-0.4 -0.4,-0.8 -0.6,-1.2 -0.2,-0.3 -0.6,-0.6 -1.1,-0.8 -0.4,-0.2 -0.8,-0.3 -1.3,-0.3 h -7.3 v 7.2 h 7.1 c 0.5,0 1,-0.1 1.4,-0.3 0.4,-0.2 0.7,-0.4 1.1,-0.7 0.3,-0.3 0.5,-0.7 0.7,-1.2 0.1,-0.4 0.2,-0.8 0.2,-1.3 z"
       id="path39" /><path
       inkscape:connector-curvature="0"
       d="m 479.4,657.9 c -1.3,0 -2.5,-0.3 -3.6,-0.8 -1.1,-0.5 -2,-1.3 -2.9,-2.1 -0.7,-0.8 -1.4,-1.9 -1.8,-3.1 -0.4,-1.2 -0.6,-2.3 -0.6,-3.6 0,-1.3 0.2,-2.4 0.6,-3.6 0.4,-1.2 1.1,-2.2 1.9,-3.1 0.8,-0.9 1.7,-1.6 2.9,-2.1 1.1,-0.5 2.2,-0.7 3.5,-0.7 1.3,0 2.5,0.3 3.6,0.8 1.1,0.5 2,1.3 2.9,2.2 0.7,1 1.4,1.9 1.8,3.1 0.4,1.2 0.6,2.3 0.6,3.5 0,1.3 -0.2,2.4 -0.6,3.6 -0.4,1.2 -1.1,2.2 -1.9,3.1 -0.7,0.8 -1.7,1.6 -2.9,2.1 -1,0.4 -2.2,0.7 -3.5,0.7 z m -7,-9.7 c 0,1.1 0.2,2 0.5,3 0.3,1 0.8,1.8 1.5,2.5 0.6,0.7 1.4,1.4 2.2,1.8 0.8,0.4 1.8,0.6 2.9,0.6 1.1,0 2,-0.2 3,-0.7 0.8,-0.4 1.6,-1.1 2.2,-1.8 0.6,-0.7 1.1,-1.6 1.4,-2.5 0.3,-0.9 0.5,-1.9 0.5,-2.9 0,-1.1 -0.2,-2 -0.5,-3 -0.3,-1 -0.8,-1.8 -1.5,-2.5 -0.6,-0.7 -1.4,-1.3 -2.2,-1.8 -0.8,-0.4 -1.8,-0.6 -2.9,-0.6 -1.1,0 -2,0.2 -3,0.6 -0.8,0.4 -1.6,1.1 -2.2,1.8 -0.6,0.7 -1.1,1.6 -1.4,2.5 -0.3,1.1 -0.5,2.1 -0.5,3 z"
       id="path41" /><path
       inkscape:connector-curvature="0"
       d="m 515.5,638.7 6.3,8.3 6.3,-8.3 h 2 l -7.3,9.7 7.1,9.3 h -2 l -6.1,-8.1 -6.1,8.1 h -2.1 l 7.1,-9.3 -7.3,-9.7 z"
       id="path43" /><path
       inkscape:connector-curvature="0"
       d="m 590.1,642.2 v 15.5 h -1.9 v -19 h 1.5 l 12.6,15.8 v -15.8 h 1.9 v 19 h -1.6 z"
       id="path45" /><path
       inkscape:connector-curvature="0"
       d="m 639.3,638.7 h 1.6 l 8,19 h -2 l -2.4,-5.9 h -8.6 l -2.4,5.9 h -2 z m 4.6,11.7 -3.8,-9.5 -3.9,9.5 z"
       id="path47" /><path
       inkscape:connector-curvature="0"
       d="m 674.2,648.1 c 0,-1.2 0.2,-2.3 0.6,-3.4 0.4,-1.1 1,-2.1 1.8,-3.1 0.7,-0.8 1.7,-1.6 2.9,-2.2 1.2,-0.5 2.4,-0.8 3.8,-0.8 1.7,0 3.2,0.4 4.4,1.2 1.2,0.7 2.1,1.8 2.7,3 l -1.5,1 c -0.3,-0.6 -0.6,-1.2 -1.1,-1.6 -0.5,-0.4 -1,-0.7 -1.4,-1.1 -0.5,-0.3 -1.1,-0.4 -1.6,-0.5 -0.5,-0.1 -1.1,-0.2 -1.6,-0.2 -1.2,0 -2.1,0.2 -3.1,0.7 -1,0.5 -1.6,1.1 -2.2,1.8 -0.6,0.7 -1.1,1.6 -1.4,2.5 -0.3,0.9 -0.4,1.9 -0.4,2.9 0,1.1 0.2,2 0.5,3.1 0.3,1 0.8,1.8 1.5,2.5 0.6,0.7 1.4,1.4 2.2,1.8 0.8,0.4 1.8,0.6 2.9,0.6 0.5,0 1.1,-0.1 1.7,-0.2 0.5,-0.1 1.1,-0.3 1.6,-0.6 0.5,-0.3 1.1,-0.6 1.5,-1.1 0.4,-0.5 0.8,-1 1.2,-1.6 l 1.6,0.8 c -0.3,0.7 -0.7,1.4 -1.3,1.9 -0.6,0.5 -1.2,1 -1.8,1.4 -0.6,0.4 -1.4,0.6 -2.1,0.8 -0.7,0.2 -1.5,0.3 -2.2,0.3 -1.3,0 -2.5,-0.3 -3.6,-0.8 -1.1,-0.5 -2,-1.3 -2.9,-2.2 -0.7,-1 -1.4,-2 -1.8,-3.2 -0.7,-1.3 -0.9,-2.5 -0.9,-3.7 z"
       id="path49" /><path
       inkscape:connector-curvature="0"
       d="m 718.3,657.8 v -19 h 1.9 v 19 z"
       id="path51" /><path
       inkscape:connector-curvature="0"
       d="m 757.2,657.9 c -1.3,0 -2.5,-0.3 -3.6,-0.8 -1.1,-0.5 -2,-1.3 -2.9,-2.1 -0.7,-0.8 -1.4,-1.9 -1.8,-3.1 -0.4,-1.2 -0.6,-2.3 -0.6,-3.6 0,-1.3 0.2,-2.4 0.6,-3.6 0.4,-1.2 1.1,-2.2 1.9,-3.1 0.8,-0.8 1.8,-1.6 2.9,-2.1 1.1,-0.5 2.2,-0.7 3.5,-0.7 1.3,0 2.5,0.3 3.6,0.8 1.1,0.5 2,1.3 2.9,2.2 0.7,1 1.4,1.9 1.8,3.1 0.4,1.2 0.6,2.3 0.6,3.5 0,1.3 -0.2,2.4 -0.6,3.6 -0.4,1.2 -1.1,2.2 -1.9,3.1 -0.8,0.8 -1.7,1.6 -2.9,2.1 -1.1,0.4 -2.2,0.7 -3.5,0.7 z m -7.1,-9.7 c 0,1.1 0.2,2 0.5,3 0.3,1 0.8,1.8 1.5,2.5 0.6,0.7 1.4,1.4 2.2,1.8 0.8,0.4 1.8,0.6 2.9,0.6 1.1,0 2,-0.2 3,-0.7 0.8,-0.4 1.6,-1.1 2.2,-1.8 0.6,-0.7 1.1,-1.6 1.4,-2.5 0.3,-1 0.5,-1.9 0.5,-2.9 0,-1.1 -0.2,-2 -0.5,-3 -0.3,-1 -0.8,-1.8 -1.5,-2.5 -0.6,-0.7 -1.4,-1.3 -2.2,-1.8 -0.8,-0.4 -1.8,-0.6 -2.9,-0.6 -1.1,0 -2,0.2 -3,0.6 -1,0.4 -1.6,1.1 -2.2,1.8 -0.6,0.7 -1.1,1.6 -1.4,2.5 -0.3,0.9 -0.5,2.1 -0.5,3 z"
       id="path53" /><path
       inkscape:connector-curvature="0"
       d="m 796.1,642.2 v 15.5 h -1.9 v -19 h 1.5 l 12.6,15.8 v -15.8 h 1.9 v 19 h -1.6 z"
       id="path55" /><path
       inkscape:connector-curvature="0"
       d="m 845.3,638.7 h 1.6 l 8,19 h -2 l -2.4,-5.9 h -8.6 l -2.4,5.9 h -2 z m 4.7,11.7 -3.8,-9.5 -3.9,9.5 z"
       id="path57" /><path
       inkscape:connector-curvature="0"
       d="m 882.1,657.8 v -19 h 1.9 v 17.4 h 11 v 1.7 h -13 v -0.1 z"
       id="path59" /><path
       inkscape:connector-curvature="0"
       d="m 952.3,651.3 v -1.7 h 7.9 v 1.7 z"
       id="path61" /><path
       inkscape:connector-curvature="0"
       d="m 1034.6,652.8 c 0,0.7 -0.1,1.4 -0.4,2 -0.3,0.6 -0.6,1.2 -1.2,1.6 -0.5,0.4 -1.1,0.7 -1.7,1.1 -0.6,0.3 -1.4,0.3 -2,0.3 h -9 v -19 h 9.1 c 0.6,0 1.3,0.1 1.8,0.4 0.5,0.3 1,0.6 1.4,1.1 0.4,0.4 0.6,1 0.8,1.6 0.2,0.6 0.3,1.2 0.3,1.8 0,1 -0.2,1.8 -0.7,2.7 -0.5,0.8 -1.2,1.4 -2,1.8 1.1,0.3 1.9,1 2.5,1.8 0.8,0.7 1.1,1.7 1.1,2.8 z M 1022,640.4 v 7 h 6.6 c 0.4,0 0.8,-0.1 1.3,-0.3 0.4,-0.2 0.7,-0.4 1.1,-0.7 0.3,-0.3 0.5,-0.7 0.6,-1.1 0.1,-0.4 0.2,-0.8 0.2,-1.4 0,-0.5 -0.1,-1 -0.2,-1.4 -0.1,-0.4 -0.3,-0.8 -0.6,-1.1 -0.3,-0.2 -0.6,-0.5 -1,-0.7 -0.4,-0.2 -0.7,-0.3 -1.3,-0.3 z m 10.7,12.1 c 0,-0.4 -0.1,-1 -0.2,-1.4 -0.2,-0.4 -0.4,-0.8 -0.6,-1.2 -0.3,-0.3 -0.6,-0.6 -1.1,-0.8 -0.5,-0.2 -0.8,-0.3 -1.3,-0.3 h -7.3 v 7.2 h 7.1 c 0.5,0 1,-0.1 1.4,-0.3 0.4,-0.2 0.7,-0.4 1.1,-0.7 0.3,-0.3 0.5,-0.7 0.7,-1.2 0.1,-0.4 0.2,-0.8 0.2,-1.3 z"
       id="path63" /><path
       inkscape:connector-curvature="0"
       d="m 1062.6,657.8 v -19 h 8.1 c 0.8,0 1.6,0.2 2.2,0.5 0.6,0.3 1.3,0.8 1.8,1.4 0.5,0.6 0.8,1.2 1.2,1.9 0.3,0.7 0.4,1.5 0.4,2.1 0,0.7 -0.1,1.4 -0.3,2 -0.2,0.6 -0.5,1.2 -0.8,1.7 -0.3,0.5 -0.8,1 -1.4,1.3 -0.5,0.3 -1.1,0.6 -1.7,0.7 l 4.7,7.3 h -2.1 l -4.5,-7 h -5.6 v 7 h -2 z m 1.9,-8.7 h 6.3 c 0.5,0 1.1,-0.1 1.5,-0.3 0.4,-0.2 0.8,-0.5 1.2,-1 0.3,-0.4 0.5,-0.8 0.7,-1.4 0.2,-0.5 0.3,-1.1 0.3,-1.6 0,-0.5 -0.1,-1.2 -0.3,-1.7 -0.2,-0.5 -0.5,-1 -0.8,-1.4 -0.3,-0.4 -0.7,-0.7 -1.3,-1 -0.6,-0.3 -1,-0.3 -1.5,-0.3 h -6.1 z"
       id="path65" /></g><path
     style="opacity:1;vector-effect:none;fill:#ffffff;fill-opacity:1;fill-rule:nonzero;stroke:none;stroke-width:0.72407061;stroke-linecap:butt;stroke-linejoin:miter;stroke-miterlimit:4;stroke-dasharray:none;stroke-dashoffset:0;stroke-opacity:1"
     d="M 436.77569,0 C 385.28239,35.59442 344.02562,63.33812 301.8289,92.0182 l 3.3e-4,10.15466 33.62001,-22.19113 101.32568,-69.29323 134.31786,91.93673 0.003,-10.5201 C 522.62265,58.63716 485.4769,32.91199 436.7757,0 Z m -134.94646,102.17286 0.0524,49.39458 c 43.86409,32.93806 90.43355,68.33422 134.87745,101.28276 L 571.09609,151.56744 c 0.004,-16.79281 -0.005,-32.14895 -0.003,-48.94175 l -66.52649,49.57344 -67.80977,-49.60107 -67.17852,49.573 z m 0.0524,64.5685 0.73626,106.73353 53.54904,40.13145 32.46527,-24.47615 c 18.66796,4.773 37.88391,9.11727 54.11209,13.0344 l 21.43275,-15.857 z m 269.23674,0.0705 -125.47344,92.70835 36.37065,27.31084 -9.21217,6.82348 -16.67691,12.56661 -0.0287,0.0101 -11.30415,8.37153 c -1.54526,-0.41405 -49.27532,-11.9622 -55.00416,-13.49723 h -4.5e-4 l -25.28076,18.72235 72.28688,54.17753 c 44.81128,-33.7934 90.30915,-66.82804 134.30094,-101.08253 z"
     id="rect369"
     inkscape:connector-curvature="0"
     sodipodi:nodetypes="cccccccccccccccccccccccccccccccccccccc" /></svg>